<svg xmlns="http://www.w3.org/2000/svg" width="230.909" height="86.054" viewBox="0 0 230.909 86.054"><defs><style>.a,.b{fill:#fff;}.b,.c{isolation:isolate;}</style></defs><path class="a" d="M483.226,5140.306a26.714,26.714,0,1,1-31.862-20.2h0A26.725,26.725,0,0,1,483.226,5140.306ZM455.2,5127.8a18.348,18.348,0,1,0,20.283,16.325v0A18.433,18.433,0,0,0,455.2,5127.8Z" transform="translate(-295.703 -5086.755)"/><path class="a" d="M597.543,5138.01a20.247,20.247,0,1,1-24.149-15.312h0A20.254,20.254,0,0,1,597.543,5138.01Zm-22.609-8.391a13.051,13.051,0,1,0,15.647,9.922h0a13.121,13.121,0,0,0-15.642-9.923Z" transform="translate(-367.117 -5076.446)"/><path class="a" d="M477.591,5148.479a15.743,15.743,0,0,0-15.755,15.666,1.746,1.746,0,0,0,3.493,0,12.23,12.23,0,0,1,12.249-12.179,1.744,1.744,0,1,0,.013-3.487Z" transform="translate(-313.36 -5103.124)"/><path class="b" d="M32.414,5042.224l-7.25.009-.039-28.387-10.924.009-.01-7.1,29.069-.039.01,7.1-10.895.019Z" transform="translate(-14.191 -5003.849)"/><path class="b" d="M119.461,5002.657a4.268,4.268,0,0,1-.362,1.76,4.589,4.589,0,0,1-2.472,2.389,4.739,4.739,0,0,1-3.625,0,4.611,4.611,0,0,1-1.476-.962,4.459,4.459,0,0,1-.987-1.427,4.248,4.248,0,0,1-.371-1.76,4.468,4.468,0,0,1,1.348-3.186,4.656,4.656,0,0,1,1.466-.971,4.548,4.548,0,0,1,1.808-.36,4.751,4.751,0,0,1,1.818.35,5.116,5.116,0,0,1,1.485.962A4.382,4.382,0,0,1,119.461,5002.657Zm-1.143,33.722-6.967.009-.039-26.513,6.967-.008Z" transform="translate(-79.106 -4998.034)"/><path class="b" d="M174.879,5055.473a12.814,12.814,0,0,1-1.085,5.246,13.552,13.552,0,0,1-2.97,4.284,14.227,14.227,0,0,1-4.407,2.905,13.71,13.71,0,0,1-5.384,1.068l-3.479-.039-.01-6.762,3.42.048a7.963,7.963,0,0,0,2.765-.418,5.535,5.535,0,0,0,3.176-2.739,10.7,10.7,0,0,0,.752-1.934,3.143,3.143,0,0,1-1.163,1.059,8.44,8.44,0,0,1-1.68.671,11.3,11.3,0,0,1-1.925.359c-.674.068-1.29.1-1.866.106a15,15,0,0,1-5.384-.962,13.027,13.027,0,0,1-4.416-2.759,12.637,12.637,0,0,1-2.98-4.391,14.9,14.9,0,0,1-1.094-5.868,14.039,14.039,0,0,1,1.085-5.566,13.761,13.761,0,0,1,12.761-8.491,10.8,10.8,0,0,1,2.609.319,13.931,13.931,0,0,1,2.511.894,15.222,15.222,0,0,1,2.316,1.333,18.034,18.034,0,0,1,2.062,1.65l2.677-3.146h1.671Zm-6.986-10.144a6.893,6.893,0,0,0-.547-2.68,7.89,7.89,0,0,0-1.485-2.3,7.434,7.434,0,0,0-2.189-1.6,6.168,6.168,0,0,0-2.677-.6,7.4,7.4,0,0,0-2.678.476,6.236,6.236,0,0,0-2.179,1.39,6.5,6.5,0,0,0-1.456,2.263,8.453,8.453,0,0,0-.528,3.079,7.809,7.809,0,0,0,.537,2.983,6.68,6.68,0,0,0,1.466,2.264,6.365,6.365,0,0,0,2.179,1.438,7.086,7.086,0,0,0,2.677.506,6.046,6.046,0,0,0,2.677-.613,7.422,7.422,0,0,0,2.188-1.612,7.913,7.913,0,0,0,1.486-2.3A7.011,7.011,0,0,0,167.893,5045.329Z" transform="translate(-104.116 -5020.517)"/><path class="b" d="M272.366,5055.321a12.8,12.8,0,0,1-1.085,5.246,13.583,13.583,0,0,1-2.97,4.285,14.242,14.242,0,0,1-4.407,2.9,13.522,13.522,0,0,1-5.384,1.068l-3.479-.039-.01-6.761,3.42.049a7.987,7.987,0,0,0,2.765-.418,5.545,5.545,0,0,0,1.925-1.119,5.721,5.721,0,0,0,1.251-1.62,10.77,10.77,0,0,0,.753-1.934,3.145,3.145,0,0,1-1.163,1.058,8.251,8.251,0,0,1-1.681.671,11.113,11.113,0,0,1-1.925.361c-.674.068-1.29.1-1.866.106a14.969,14.969,0,0,1-5.384-.961,13.05,13.05,0,0,1-4.416-2.759,12.643,12.643,0,0,1-2.98-4.392,14.888,14.888,0,0,1-1.095-5.867,14.039,14.039,0,0,1,1.085-5.568,13.759,13.759,0,0,1,12.761-8.49,10.846,10.846,0,0,1,2.609.319,14.006,14.006,0,0,1,2.512.894,15.322,15.322,0,0,1,2.316,1.333,17.9,17.9,0,0,1,2.062,1.65l2.678-3.148h1.671Zm-6.987-10.142a6.891,6.891,0,0,0-.547-2.682,7.946,7.946,0,0,0-1.485-2.3,7.436,7.436,0,0,0-2.189-1.6,6.169,6.169,0,0,0-2.678-.6,7.444,7.444,0,0,0-2.677.477,6.237,6.237,0,0,0-2.179,1.39,6.507,6.507,0,0,0-1.456,2.263,8.453,8.453,0,0,0-.528,3.081,7.808,7.808,0,0,0,.538,2.982,6.813,6.813,0,0,0,1.466,2.263,6.351,6.351,0,0,0,2.179,1.438,7.049,7.049,0,0,0,2.677.5,6.024,6.024,0,0,0,2.677-.612,7.445,7.445,0,0,0,2.189-1.611,7.953,7.953,0,0,0,1.485-2.3A6.988,6.988,0,0,0,265.38,5045.179Z" transform="translate(-170.052 -5020.415)"/><path class="b" d="M352.265,5002.326a4.253,4.253,0,0,1-.361,1.758,4.6,4.6,0,0,1-2.472,2.392,4.757,4.757,0,0,1-3.625,0,4.613,4.613,0,0,1-1.475-.963,4.452,4.452,0,0,1-.987-1.429,4.231,4.231,0,0,1-.371-1.758,4.46,4.46,0,0,1,1.349-3.185,4.74,4.74,0,0,1,1.465-.973,4.576,4.576,0,0,1,1.808-.359,4.766,4.766,0,0,1,1.817.35,4.939,4.939,0,0,1,1.485.962,4.3,4.3,0,0,1,1.007,1.438A4.614,4.614,0,0,1,352.265,5002.326Zm-1.143,33.712-6.967.011-.039-26.513,6.967-.01Z" transform="translate(-236.565 -4997.809)"/><g class="c" transform="translate(99.47 11.717)"><g transform="translate(0 25.172)"><path class="a" d="M348.906,5149.275h-1.651l-2.658-3.615a20.994,20.994,0,0,1-2.062,1.614,14.909,14.909,0,0,1-2.286,1.311,14.284,14.284,0,0,1-2.463.875,10.31,10.31,0,0,1-2.56.322,13.493,13.493,0,0,1-12.6-8.337,14.8,14.8,0,0,1-.02-11.074,13.535,13.535,0,0,1,7.28-7.365,13.369,13.369,0,0,1,5.306-1.069,12.377,12.377,0,0,1,1.866.147,9.448,9.448,0,0,1,1.876.476,8.171,8.171,0,0,1,1.72.874,4.976,4.976,0,0,1,1.348,1.321l-.019-12.3,6.869-.009Zm-7.612-13.5a6.9,6.9,0,0,0-.547-2.682,7.832,7.832,0,0,0-1.465-2.3,7.205,7.205,0,0,0-2.169-1.6,6.031,6.031,0,0,0-2.638-.6,7.058,7.058,0,0,0-2.638.5,6.2,6.2,0,0,0-2.15,1.428,6.713,6.713,0,0,0-1.436,2.262,8.226,8.226,0,0,0-.518,3.024,7.482,7.482,0,0,0,1.974,5.08,6.7,6.7,0,0,0,2.15,1.554,6.284,6.284,0,0,0,2.638.563,5.83,5.83,0,0,0,2.638-.612,7.34,7.34,0,0,0,2.159-1.611,7.63,7.63,0,0,0,1.456-2.3A6.751,6.751,0,0,0,341.295,5135.771Z" transform="translate(-321.537 -5112.445)"/></g><path class="a" d="M384.667,5059.966v-.01h6.879V5034.22h-6.879Z" transform="translate(-364.236 -5034.22)"/><path class="a" d="M405.922,5114.2" transform="translate(-378.612 -5088.46)"/></g></svg>