<svg xmlns="http://www.w3.org/2000/svg" xmlns:xlink="http://www.w3.org/1999/xlink" width="589.169" height="457.549" viewBox="0 0 589.169 457.549"><defs><style>.a{fill:#fff;}.b{fill:#ff3d1a;}.ai,.c{fill:#e69143;}.d{fill:#e5b14e;}.e{fill:#109a70;}.f{fill:#062f29;}.g{fill:#026e61;}.h{fill:#081714;opacity:0.64;}.ab,.i{fill:#fafafa;}.i{opacity:0.923;}.j{fill:#c2e2ae;}.k{fill:#2d9d7d;}.l{fill:#66bc84;}.m{fill:#06332c;}.n{fill:#88c770;}.o{fill:#ddd;}.p{fill:#044738;}.q{fill:#e55b62;opacity:0.177;}.r{fill:#cc912a;opacity:0.239;}.s{fill:#707070;opacity:0.259;}.t{fill:none;}.u{opacity:0.1;}.v{fill:#0a0e17;}.w{fill:#283549;}.x{fill:#f9c18f;}.y{fill:#e2a36f;}.z{fill:#0d3150;}.aa{fill:#4f4d63;}.ac{fill:#9aa2a5;}.ad{fill:#2880fb;}.ae{fill:#c8c8cc;}.af{fill:#e50c40;}.ag{fill:#1f71cc;}.ah,.ai{stroke:none;}.aj{filter:url(#a);}</style><filter id="a" x="188.795" y="371.484" width="400.374" height="86.065" filterUnits="userSpaceOnUse"><feOffset dy="3" input="SourceAlpha"/><feGaussianBlur stdDeviation="3" result="b"/><feFlood flood-opacity="0.161"/><feComposite operator="in" in2="b"/><feComposite in="SourceGraphic"/></filter></defs><g transform="translate(197.795)"><g class="aj" transform="matrix(1, 0, 0, 1, -197.79, 0)"><path class="a" d="M191.187,0c105.59,0,191.187,15.237,191.187,34.032s-85.6,34.032-191.187,34.032S0,52.828,0,34.032,85.6,0,191.187,0Z" transform="translate(197.79 377.48)"/></g><path class="b" d="M70.325,0c38.84,0,70.325,3.467,70.325,7.744s-31.486,7.744-70.325,7.744S0,12.021,0,7.744,31.486,0,70.325,0Z" transform="translate(111.848 403.48)"/><g transform="translate(43.184)"><g transform="translate(0)"><rect class="c" width="289.634" height="11.421" transform="translate(0 110.261)"/><g transform="translate(181.401)"><path class="d" d="M765.843,61.014c0,20.964-12.04,32.165-12.04,32.165s-4.549.25-10.932.462c-11.48.4-28.9.736-36.646-.462C694.2,91.339,691.46,59.7,691.46,59.7l28.757.5Z" transform="translate(-679.772 16.39)"/><g transform="translate(0 39.561)"><path class="e" d="M711.215,88.664l-5.089.311-1.274.085-4.075.264S687.1,66.592,689.215,54.967C691.31,43.341,704.246,67.653,711.215,88.664Z" transform="translate(-688.993 -51.953)"/><g transform="translate(3.835 9.405)"><path class="f" d="M703.1,81.565l-1.274.085c-2.114-5.372-8.117-20.421-11.946-26.779a.619.619,0,1,1,1.066-.627C694.885,60.823,701.12,76.471,703.1,81.565Z" transform="translate(-689.803 -53.947)"/></g></g><g transform="translate(22.222)"><path class="g" d="M709.268,120.5l-7.724-.33-1.232-.047-6.629-.283S694.565,89,703.662,68.18s12.382-25.5,16.679-24.487S709.268,120.5,709.268,120.5Z" transform="translate(-693.683 -43.565)"/><g transform="translate(6.629 9.917)"><path class="f" d="M710.733,46.557c-7.563,14.814-12.012,47.917-13.917,62.084-.209,1.594-.374,2.8-.5,3.712l-1.232-.047c.147-1.047.323-2.4.516-3.839,1.91-14.2,6.374-47.474,14.049-62.471a.611.611,0,0,1,1.085.561Z" transform="translate(-695.082 -45.667)"/></g></g><g transform="translate(45.326 1.954)"><path class="e" d="M717.877,84.732v.014c-.033.472-.062.953-.118,1.42,0,.123-.014.231-.014.349-.019.212-.028.4-.047.6a283.374,283.374,0,0,1-4.5,31.858l-6.392-.118-1.213-.019-7.032-.127s1.985-31.495,4.307-47.092,5.8-27.642,11.14-27.642C719.1,43.979,719.138,67.386,717.877,84.732Z" transform="translate(-698.559 -43.979)"/><g transform="translate(7.032 10.351)"><path class="f" d="M707.288,46.811c-.554,12.833-4.829,53.831-6.032,63.891l-1.213-.019c1.066-9.366,5.425-50.2,6.018-63.928a.634.634,0,0,1,.644-.58A.606.606,0,0,1,707.288,46.811Z" transform="translate(-700.043 -46.174)"/></g></g><g transform="translate(62.839 9.597)"><path class="g" d="M719.546,77.879c-.758,4.41-1.573,8.565-2.346,11.88-1.772,7.645-3.677,13.875-5.056,17.973-1.156,3.471-1.947,5.414-1.947,5.414l-3.691-.061-1.227-.038-3.023-.057s.881-16.3,1.673-32.5c0-.118.015-.226.015-.349.057-.467.085-.948.118-1.42v-.014c1.578-15.828,13.694-33.947,17.044-33.08C723.758,46.328,721.99,63.518,719.546,77.879Z" transform="translate(-702.255 -45.6)"/><g transform="translate(3.023 2.708)"><path class="f" d="M718.411,47.132c-1.611,2.306-8.661,22.4-9.979,34.362-1.118,9.975-3.506,24.741-4.312,29.458l-1.227-.038c.749-4.551,3.189-19.511,4.312-29.561,1.341-12.111,8.544-32.551,10.183-34.919a.627.627,0,0,1,.857-.156A.619.619,0,0,1,718.411,47.132Z" transform="translate(-702.893 -46.174)"/></g></g><g transform="translate(72.728 26.651)"><path class="e" d="M720.054,76.85a85.462,85.462,0,0,1-7.965,23.029l-4-.085-1.246-.038-2.293-.047s-.185-2.136-.2-5.414c-.009-5.8.507-15.163,3.545-23.029a29.352,29.352,0,0,1,3.857-6.824c6.823-9.324,18.309-16.417,19.8-15.059C733.4,51.066,722.949,62.857,720.054,76.85Z" transform="translate(-704.341 -49.216)"/><g transform="translate(2.497 2.864)"><path class="f" d="M727.6,50.88c-.128.132-12.893,11.616-15.139,18.846-1.412,4.523-3.459,14.29-4.966,21.412-.677,3.24-1.1,5.2-1.383,6.4l-1.246-.038c.327-1.5.872-4.014,1.407-6.612,1.526-7.15,3.6-16.941,5.027-21.52,2.341-7.551,14.945-18.907,15.48-19.379a.606.606,0,1,1,.82.891Z" transform="translate(-704.869 -49.823)"/></g></g><path class="h" d="M743.155,60.624c0,20.964-12.04,32.165-12.04,32.165s-4.549.25-10.931.462c-5.345-10.593-17.769-27.09-22.654-33.447Z" transform="translate(-657.083 16.781)"/></g><path class="i" d="M720.022,62.444s-.18.047-.545.151c-.834.193-2.625.618-5.165,1.056l-1.113.2c-1.3.2-2.758.415-4.369.618-.881.113-1.8.222-2.767.307-1.545.165-3.18.292-4.9.4-2.445.146-5.07.2-7.809.184q-2.246-.028-4.416-.141c-3.293-.127-6.411-.368-9.235-.66-.322-.038-.658-.066-.967-.1-1.9-.193-3.663-.424-5.222-.637a.453.453,0,0,0-.132-.014c-4.952-.684-8.032-1.358-8.032-1.358a60.739,60.739,0,0,1,7.79-1.684.938.938,0,0,1,.279-.047q2.637-.439,6-.783c.573-.057,1.18-.108,1.786-.165a110.975,110.975,0,0,1,11.154-.349c.332,0,.654.009.99.009,2.232.047,4.331.146,6.3.259,2.3.156,4.4.311,6.316.514,1.038.09,2.018.2,2.933.321,1.971.222,3.705.481,5.17.74.289.042.592.09.862.137,2.5.424,4.108.8,4.758.967Z" transform="translate(-639.988 15.271)"/><path class="j" d="M716.328,86.143c-2.862,5.1-10.159,7.126-19.048,7.4a109.687,109.687,0,0,1-18.6-1.41c-16.13-2.448-13.121-32.085-13.121-32.085a143.97,143.97,0,0,0,40.285,2.434,73.246,73.246,0,0,0,14.12-2.434S721.048,77.7,716.328,86.143Z" transform="translate(-640.033 17.672)"/><path class="k" d="M681.147,87.805l-.081.014-.133.019v-.033c-1.659-.231-3.089-.462-4.274-.646-.317-.057-.607-.1-.891-.156-1.834-.325-2.867-.557-2.867-.557-2.051-4.207-6.221-12.922-8.046-17.582-2.455-6.329-1.222-15.927-1.222-15.927s6.344,1.641,11.888,12.253a52.169,52.169,0,0,1,4.956,15.639v.057c.227,1.462.393,2.754.493,3.83C681.147,86.64,681.147,87.805,681.147,87.805Z" transform="translate(-644.545 -8.731)"/><path class="l" d="M679.975,71.676l-.01.047c-.223,1.269-.445,2.561-.677,3.811a153.816,153.816,0,0,1-3.99,16.139c-.606,2.056-1.147,3.731-1.507,4.792-.322-.038-.659-.066-.967-.1-.819-.08-1.607-.184-2.364-.255-.28-.038-.554-.066-.82-.1-.706-.1-1.393-.193-2.038-.278l-.132.019V95.71c-.081-.821-.157-1.844-.242-3.042-.08-1.16-.166-2.457-.213-3.877v-.057a85.635,85.635,0,0,1,.668-15.832c1.744-10.734,11.8-22.864,13.656-22.053C682.974,51.566,681.719,61.579,679.975,71.676Z" transform="translate(-631.082 -16.636)"/><path class="k" d="M692.118,67.1c-.213.613-.436,1.25-.654,1.905-.8,2.33-1.644,4.773-2.412,7.221a67,67,0,0,1-2.4,6.282v.019c-1.535,3.49-3.293,6.853-4.857,9.673-1.388,2.495-2.62,4.532-3.426,5.8-1.824-.061-3.6-.184-5.283-.3-.28-.019-.555-.057-.839-.066-1.056-.1-2.113-.2-3.113-.292-.322-.038-.659-.066-.966-.1a40.543,40.543,0,0,1,.687-4.523A118.154,118.154,0,0,1,675.312,72.6l.009-.047A79.416,79.416,0,0,1,681.2,60.7c.555-.863,1.147-1.684,1.735-2.457a26.457,26.457,0,0,1,6.676-6.4c.261-.156.512-.311.754-.424,2.184-1.16,3.975-1.16,4.781.269C696.449,53.976,694.549,59.937,692.118,67.1Z" transform="translate(-626.428 -17.509)"/><path class="l" d="M686.8,102.572c-.014.792-.014,1.537-.033,2.193v.066c-.015.632-.033,1.2-.033,1.693a.15.15,0,0,0-.081.019c-.853.094-1.748.2-2.686.288-.431.052-.872.08-1.332.137-.275.028-.555.047-.853.066q-1.329.106-2.72.193c-.351-1.217-.886-3.108-1.512-5.49-.739-2.764-1.6-6.164-2.431-9.942v-.019c-.772-3.433-1.535-7.183-2.18-10.989-.161-.929-.308-1.858-.441-2.811v-.014c-.08-.472-.152-.934-.2-1.4-.426-3.042-.734-6.107-.9-9.046-.568-10.079.479-18.681,4.549-19.384,4.9-.844,8.856,8.687,10.254,21.577.246,2.419.422,4.99.493,7.617C686.922,87.3,686.87,96.7,686.8,102.572Z" transform="translate(-618.896 -26.781)"/><path class="k" d="M685.96,78.657A128.527,128.527,0,0,1,684.1,92.41c-.427,2.136-.834,3.943-1.218,5.4-.218.882-.436,1.637-.616,2.254l-1.114.2c-1.08.174-2.3.358-3.606.519-.251.028-.5.061-.763.1a.151.151,0,0,0-.081.019c-.853.094-1.748.2-2.686.288-.052-1.146-.081-2.627-.1-4.579-.02-3.693.066-9,.36-16.573a87.757,87.757,0,0,1,1.971-15.969c2.26-10.1,5.885-15,7.989-14.427C687.235,50.464,687.192,63.523,685.96,78.657Z" transform="translate(-608.946 -21.142)"/><path class="l" d="M695.422,68.382a175.1,175.1,0,0,1-13.49,16.478c-.071.08-.138.146-.209.231-.573.127-1.6.377-3.032.66-.332.066-.673.142-1.033.2s-.7.132-1.1.193l-1.113.2c.26-.882.554-1.759.867-2.594.626-1.816,1.331-3.565,2.08-5.263,6.648-15.04,16.949-25.378,19.275-25.147C700.559,53.625,701.165,60.006,695.422,68.382Z" transform="translate(-603.235 -7.226)"/><g transform="translate(127.953 36.376)"><path class="m" d="M687.133,93.474a.818.818,0,0,1-.815-.726c-.028-.269-3.193-27.727-5.217-40.319a.813.813,0,0,1,.673-.929.825.825,0,0,1,.948.67c2.024,12.63,5.2,40.116,5.226,40.394a.81.81,0,0,1-.72.9A.3.3,0,0,1,687.133,93.474Z" transform="translate(-681.09 -51.489)"/></g><g transform="translate(113.069 51.802)"><path class="m" d="M687.021,81.725a.812.812,0,0,1-.782-.58c-.057-.174-5.53-17.823-8.24-25.293a.808.808,0,0,1,.488-1.042.824.824,0,0,1,1.057.5c2.729,7.485,8.212,25.18,8.264,25.354a.819.819,0,0,1-.545,1.023A.7.7,0,0,1,687.021,81.725Z" transform="translate(-677.949 -54.759)"/></g><g transform="translate(142.307 42.394)"><path class="m" d="M684.944,88.5h-.091a.815.815,0,0,1-.729-.9c.023-.212,2.3-21.454,5.762-34.221a.822.822,0,1,1,1.587.424c-3.431,12.639-5.7,33.749-5.719,33.971A.818.818,0,0,1,684.944,88.5Z" transform="translate(-684.119 -52.765)"/></g><path class="n" d="M692.413,74.071s7.69-20.063,4.923-22.062c-2.767-1.981-5.222,10.262-5.222,10.262s-3.625-15.714-6.634-16.12S687.8,63.77,687.8,63.77s-6.965-6.815-9.226-4.457S692.413,74.071,692.413,74.071Z" transform="translate(-563.34 -34.976)"/><path class="n" d="M686.956,81.023s5.776-19.841,2.995-20.652-5.44,11.064-5.643,10.329,0-16.3-1.232-19.851-3.748-2.358-3.1,5.73a56.27,56.27,0,0,0,3.1,14.4s-5.08-6.527-6.842-3.268S686.956,81.023,686.956,81.023Z" transform="translate(-571.937 -24.503)"/><path class="n" d="M691.012,69.321c-.19.571-7.823-14.323-10.832-11.531s11.855,18.1,11.855,18.1,11.183-14.5,10.572-18.478S695.836,54.583,691.012,69.321Z" transform="translate(-558.039 -0.421)"/><path class="n" d="M679.351,57.73c-2.033,2.754,8.776,15.455,12.95,18.558,0,0,5.041-7.754,6.482-13.54s2.667-11.974,0-11.937-7.51,17.455-7.51,17.455S681.658,54.6,679.351,57.73Z" transform="translate(-560.579 -17.631)"/><path class="n" d="M690.063,73.231s5.283-15.842,1.919-16.082-5.183,9.286-5.183,9.286-8.837-4.339-9.249,0C677.141,70.793,690.063,73.231,690.063,73.231Z" transform="translate(-566.41 5.904)"/><path class="n" d="M691.188,70.5s12.03-4.485,11.087-6.357-11.087,1.99-11.087,1.99-3.805-12.314-7.766-9.725S691.188,70.5,691.188,70.5Z" transform="translate(-547.473 1.839)"/><path class="n" d="M690.612,69.74s12.954-3.782,11.523-10.046-9.093,5.829-9.093,5.829,6.146-13.927,2.189-15.153-4.369,14.285-4.369,14.285-3.383-8.032-6.511-5.957S690.612,69.74,690.612,69.74Z" transform="translate(-543.334 -19.529)"/><path class="o" d="M729.381,81.775c-1.953,7.065-4.762,10.517-17.665,11.559-1,.085-2.066.146-3.2.2-15.637.736-23.232-1.684-26.132-6.041s-4.265-26.123-4.265-26.123l39.4-.986,13.419-.344S731.485,74.168,729.381,81.775Z" transform="translate(-564.234 16.677)"/><g transform="translate(22.682 50.461)"><path class="p" d="M674.37,82.231c-.317-.057-.607-.1-.891-.156-1.265-5.343-5.1-20.313-9.481-27.184a.411.411,0,0,1,.692-.443C669.3,61.677,673.167,77.137,674.37,82.231Z" transform="translate(-663.937 -54.264)"/></g><g transform="translate(39.559 39.692)"><path class="p" d="M676.947,52.6c-6.1,10.1-8.221,33.924-8.629,39.159-.28-.038-.554-.066-.82-.1.412-5.343,2.473-29.1,8.747-39.48a.418.418,0,0,1,.569-.137A.411.411,0,0,1,676.947,52.6Z" transform="translate(-667.499 -51.981)"/></g><g transform="translate(46.823 46.504)"><path class="p" d="M683.109,54.047c-.787,1.283-1.559,2.636-2.293,4.056-5.369,10.22-9.3,23.331-10.945,29-.279-.019-.554-.057-.839-.066,1.692-5.782,5.861-19.8,11.585-30.339.573-1.061,1.185-2.113,1.782-3.089a.438.438,0,0,1,.578-.127A.4.4,0,0,1,683.109,54.047Z" transform="translate(-669.032 -53.425)"/></g><g transform="translate(58.206 28.05)"><path class="p" d="M678.026,101.649c-.275.028-.554.047-.853.066-.185-5-.858-17.016-1.853-28.741v-.019c-.521-6.155-1.142-12.224-1.857-17.162-.308-2.184-.62-4.155-.961-5.792a.4.4,0,0,1,.322-.481.417.417,0,0,1,.479.316c.313,1.537.625,3.405.914,5.532.644,4.443,1.236,9.961,1.758,15.681v.019C677.074,83.162,677.86,96.16,678.026,101.649Z" transform="translate(-672.49 -49.512)"/></g><g transform="translate(67.761 36.187)"><path class="p" d="M681.06,51.824c-3.35,7.192-4.914,30.8-5.582,40.9-.052.773-.1,1.434-.128,1.971-.251.028-.5.061-.763.1a.15.15,0,0,0-.08.019c.038-.514.08-1.094.114-1.712v-.066c.019-.118.019-.24.033-.358.677-10.149,2.251-33.872,5.662-41.21a.4.4,0,0,1,.54-.184A.394.394,0,0,1,681.06,51.824Z" transform="translate(-674.506 -51.238)"/></g><g transform="translate(74.423 52.392)"><path class="p" d="M693.7,55.378c-6.383,6.108-13.945,20.016-16.75,25.43-.332.066-.673.142-1.033.2.213-.424.493-.939.825-1.566.948-1.811,2.469-4.631,4.288-7.772,3.208-5.49,7.889-12.871,12.1-16.884a.411.411,0,0,1,.573.59Z" transform="translate(-675.912 -54.674)"/></g><path class="q" d="M691.125,86.143c-2.862,5.1-10.159,7.126-19.048,7.4,5.07-10.371,7.577-24.289,8.562-31.061a73.249,73.249,0,0,0,14.12-2.434S695.844,77.7,691.125,86.143Z" transform="translate(-614.83 17.672)"/><path class="r" d="M702.876,81.775c-1.953,7.065-4.762,10.517-17.665,11.559,5.236-11.192,5.776-25.911,5.809-32.948l13.419-.344S704.979,74.168,702.876,81.775Z" transform="translate(-537.729 16.677)"/><rect class="s" width="289.634" height="4.272" transform="translate(0 121.31)"/></g></g><g class="t" transform="translate(26.207 383.333)"><path class="ah" d="M161.769,0c89.343,0,161.769,12.662,161.769,28.281S251.112,56.561,161.769,56.561,0,43.9,0,28.281,72.427,0,161.769,0Z"/><path class="ai" d="M 161.769287109375 1.999984741210938 C 139.9795837402344 1.999984741210938 118.84375 2.745899200439453 98.94886779785156 4.216983795166016 C 79.75125122070312 5.636524200439453 62.5172119140625 7.667442321777344 47.72552490234375 10.25335693359375 C 40.45758056640625 11.52394104003906 33.8642578125 12.92073440551758 28.12869262695312 14.40494155883789 C 22.3753662109375 15.89373397827148 17.44570922851562 17.48040008544922 13.47659301757812 19.12094116210938 C 9.5421142578125 20.74715042114258 6.55078125 22.42294311523438 4.585693359375 24.1018180847168 C 2.869964599609375 25.56760787963867 2 26.97360801696777 2 28.28073310852051 C 2 29.58785820007324 2.869964599609375 30.99385833740234 4.585693359375 32.45964813232422 C 6.55078125 34.13852691650391 9.5421142578125 35.81431579589844 13.47659301757812 37.44052505493164 C 17.44570922851562 39.0810661315918 22.3753662109375 40.66773223876953 28.12869262695312 42.15652465820312 C 33.8642578125 43.64073181152344 40.45758056640625 45.03752517700195 47.72552490234375 46.30810928344727 C 62.5172119140625 48.89402389526367 79.75125122070312 50.92494201660156 98.94886779785156 52.344482421875 C 118.84375 53.81556701660156 139.9795837402344 54.56148147583008 161.769287109375 54.56148147583008 C 183.5589904785156 54.56148147583008 204.6948699951172 53.81556701660156 224.5897521972656 52.344482421875 C 243.7873687744141 50.92494201660156 261.0213623046875 48.89402389526367 275.8130493164062 46.30810928344727 C 283.0810241699219 45.03752517700195 289.6743774414062 43.64073181152344 295.409912109375 42.15652465820312 C 301.1632080078125 40.66773223876953 306.0928649902344 39.0810661315918 310.0619812011719 37.44052505493164 C 313.9964599609375 35.81431579589844 316.98779296875 34.13852691650391 318.952880859375 32.45964813232422 C 320.6686096191406 30.99385833740234 321.53857421875 29.58785820007324 321.53857421875 28.28073310852051 C 321.53857421875 26.97360801696777 320.6686096191406 25.56760787963867 318.952880859375 24.1018180847168 C 316.98779296875 22.42294311523438 313.9964599609375 20.74715042114258 310.0619812011719 19.12094116210938 C 306.0928649902344 17.48040008544922 301.1632080078125 15.89373397827148 295.409912109375 14.40494155883789 C 289.6743774414062 12.92073440551758 283.0810241699219 11.52394104003906 275.8130493164062 10.25335693359375 C 261.0213623046875 7.667442321777344 243.7873687744141 5.636524200439453 224.5897521972656 4.216983795166016 C 204.6948699951172 2.745899200439453 183.5589904785156 1.999984741210938 161.769287109375 1.999984741210938 M 161.769287109375 -1.52587890625e-05 C 251.1120300292969 -1.52587890625e-05 323.53857421875 12.6617317199707 323.53857421875 28.28073310852051 C 323.53857421875 43.89973449707031 251.1120300292969 56.56148147583008 161.769287109375 56.56148147583008 C 72.42657470703125 56.56148147583008 0 43.89973449707031 0 28.28073310852051 C 0 12.6617317199707 72.42657470703125 -1.52587890625e-05 161.769287109375 -1.52587890625e-05 Z"/></g></g><g transform="translate(0 12.829)"><ellipse class="u" cx="45.706" cy="10.331" rx="45.706" ry="10.331" transform="translate(5.027 411.877)"/><path class="v" d="M404.114,474.872c-.128,2.964-.365,6.079-.365,9.193a3.421,3.421,0,0,0,3.494,3.667c3.129.108,6.274-.158,9.411-.29a24.1,24.1,0,0,1,2.912-.22c3.854.332,7.7.911,11.559,1.1,4.615.228,9.245.158,13.867.2,1.873.019,3.885.274,4.595-2.169.543-1.884-.178-2.976-3.156-4.4-1.423-.679-2.959-1.139-4.444-1.691-4.866-1.806-9.729-3.62-14.607-5.4a6.562,6.562,0,0,0-2.078-.432q-9.748-.116-19.5-.139A7.021,7.021,0,0,0,404.114,474.872Z" transform="translate(-187.557 -102.989)"/><path class="v" d="M436.375,487.985h28.854c-1.066-5.145-5.014-7.646-8.434-10.1-6.518-4.662-13.591-3.829-20.587-.533A15.628,15.628,0,0,0,436.375,487.985Z" transform="translate(-325.606 -101.998)"/><path class="w" d="M441.536,425.977c-.671,6.1-1.179,11.81-1.939,17.492q-3.647,27.216-7.461,54.409c-1.35,9.564-2.629,19.151-4.459,28.63-2.02,10.463-4.769,20.784-6.957,31.22-3.579,17.071-7.007,34.173-10.4,51.282-1.423,7.167-.923,7.792,6.4,7.584,4.436-.123,8.853-.784,12.765-1.154,6.456-28.55,15.243-55.7,23.064-83.124,4.506-15.8,8.039-31.869,12-47.82,1.741-6.993,3.463-13.995,5.216-20.988.237-.953.593-1.876,1.121-3.5.776,1.471,1.346,2.347,1.729,3.3,9.4,23.428,18.946,46.8,28.02,70.345,1.935,5.017,2.218,10.679,3.118,16.063q5.322,31.784,10.559,63.575a24.558,24.558,0,0,0,.783,2.675c8.225.641,16.065-1.316,23.956-2.339-6.418-27.581-9.675-55.231-14.627-82.58-1.253-6.928-3.513-13.671-5.212-20.525Q510.157,474,501.14,437.459c-.477-1.907-.756-4.543-2.078-5.423a19.4,19.4,0,0,0-8.729-3.354c-12.126-.961-24.294-1.432-36.447-2.08C449.881,426.39,445.871,426.2,441.536,425.977Z" transform="translate(-299.857 -241.144)"/><path class="x" d="M422.316,432.308c-4.758-1.15-9.089-2.2-14.1-3.408.275,2.165.365,3.833.71,5.45,1.838,8.6,3.6,17.225,5.692,25.766.741,3.022.295,5.4-1.776,7.545-3.634,3.756-7.213,8.719-4.626,12.81,1.691,2.679,5.452,5.975,7.368,8.483,1.745,2.281,5.312.394,6.569-2.258a44.477,44.477,0,0,0,3.963-23.991c-.872-8.464-2.008-16.9-3.044-25.346C422.882,435.8,422.61,434.249,422.316,432.308Z" transform="translate(-178.107 -232.785)"/><path class="y" d="M433.749,387.945c-1.284,3.651-2.672,7.268-3.816,10.961-1.253,4.022-3.568,6.372-8.066,6.229a41.528,41.528,0,0,0-6.057.448c-3.769.432-5.564,3.705-3.8,7.129,2.7,5.253,5.456,10.483,8.411,15.6.706,1.22,2.276,1.957,3.474,2.883a2.5,2.5,0,0,0,.822.259c3.878,1.108,7.833,3.3,11.61,3.026s7.437-2.926,11.071-4.69c5.576-2.7,11.664-10.471,6.972-14.381-6.007-5.006-14.312-11.579-16.5-18.939-.853-2.867-2.121-5.612-3.2-8.41Z" transform="translate(-223.237 -349.899)"/><path class="z" d="M406.835,524.4c20.086,3.153,39.529,5.859,59.546,5.77.892-7.873,1.687-15.311,2.606-22.733a30.857,30.857,0,0,1,1.376-6.3c2.776-8.043,5.681-16.044,8.57-24.053a17.127,17.127,0,0,1,1.6-3.535c6.006-9.178,11.423-18.742,18.558-27.168,4.669-5.515,9.078-11.247,13.549-16.92,1.144-1.451,2.094-3.049,3.428-5.017-5.432-6.2-11.761-13.433-17.508-19.994a9.828,9.828,0,0,0-1.391,2.36,19.584,19.584,0,0,1-1.906,4.017A14.108,14.108,0,0,1,474.26,412.6c-5.119-4.678-7.911-10.961-11.238-16.859-.558-.992-1.9-1.824-2.289-2.666a8.821,8.821,0,0,0-1.59-.621c-8.946,1.768-18.764,3.608-26.927,8.023-1.78.965-.669,1.864-1.178,3.886-6.98,27.828-15.627,55.254-20.579,83.571-1.136,6.515-1.566,13.161-2.218,19.757C407.7,513.119,407.32,518.565,406.835,524.4Z" transform="translate(-265.839 -336.905)"/><path class="x" d="M412.966,402.922c-.566-.2-.954-.32-1.33-.475-3.087-1.262-4.533-.486-5.1,2.744a10.147,10.147,0,0,0,6.111,10.954c1.985,4.809,3.967,9.444,5.817,14.134,1.183,3,3.121,5.349,6.173,6.268a34.747,34.747,0,0,0,9.663,1.833c5.534.023,9.132-3.751,11.478-8.124a113.165,113.165,0,0,0,8.481-18.916,27.766,27.766,0,0,0-3.2-23.717c-5.727-9.2-16.24-11.293-25.24-5.183-5.882,3.991-9.357,9.718-11.579,16.3C413.78,400.093,413.4,401.471,412.966,402.922Z" transform="translate(-203.622 -375.571)"/><path class="v" d="M459.67,391.625c-9.054-5.164-16.868-10.9-26.57-12.864a37.636,37.636,0,0,0-18.818,1.258c-4.688,1.451-7.519,5.369-8.562,10.131a84.648,84.648,0,0,0-1.439,11.112,6.71,6.71,0,0,0,.88,3.7,22.366,22.366,0,0,1,2.827,6.16,3.617,3.617,0,0,0,2.761,2.119c.888-.008,2.047-1.3,2.594-2.3a56.052,56.052,0,0,1,10.222-13.655c1.183-1.135,3.42-1.594,5.188-1.633,5.991-.12,11.707,1.5,17.364,3.335a4.4,4.4,0,0,1,3.385,4.824c-.043,1.976.2,3.96.322,6.071,2.125,0,2.8-1.366,3.125-2.7C454.3,401.717,455.828,396.345,459.67,391.625Z" transform="translate(-199.474 -378.087)"/><path class="v" d="M473.7,496.452a20.455,20.455,0,0,1-3.692,11.444c-4.021,5.43-10.1,5.357-14.111-.112-4.762-6.5-4.719-18.1.093-24.508,4.056-5.4,10.1-5.349,14.119.124C472.333,486.428,473.718,491.156,473.7,496.452Z" transform="translate(-399.988 -88.782)"/><path class="aa" d="M367.959,488.055a15.545,15.545,0,0,1,3.075-.818q28.571-1.337,57.153-2.594c.865-.039,1.733-.17,2.6-.166,3.389.015,6.829,3.918,6.259,7.256a2.952,2.952,0,0,1-1.539,1.8,6.966,6.966,0,0,1-2.563.228q-28.187,1.1-56.378,2.184C370.464,496.183,368.033,494.06,367.959,488.055Z" transform="translate(-36.126 -73.859)"/><path class="ab" d="M453.6,517.117c.458-7.773.423-15.62,1.543-23.3a81.685,81.685,0,0,1,4.933-16.932c2.71-7.109,9.074-10.015,15.829-12.293,14.01-4.724,23.53,4.415,28.959,13.231,4.568,7.406,7.464,15.585,10.388,23.744,4.715,13.165,6.255,26.932,7.992,40.657.771,6.09-.279,8.109-5.964,10.4a30.53,30.53,0,0,1-10.055,2.273c-11,.4-22.021.448-33.03.455a81.329,81.329,0,0,1-10.815-.864c-5.138-.683-7.546-2.926-8.038-8.051-.938-9.746-1.547-19.518-2.3-29.283Z" transform="translate(-452.435 -134.396)"/><path class="ac" d="M387.711,440.77c1.407-.81,2.261-1.3,3.544-2.042q48.457,60.013,96.985,120.11c-1.159,1.25-2.113,2.277-3.5,3.771C452.383,521.976,420.214,481.585,387.711,440.77Z" transform="translate(-163.852 -204.678)"/><path class="ac" d="M430.818,505.79l-61.407,2.154c-.26-4.435,0-4.925,3.571-5.755,4.932-1.146,9.9-2.161,14.848-3.254.838-.185,1.644-.49,2.633-.787a10.566,10.566,0,0,0-2.986-8.221c-2.885-3.014-5.522-6.264-8.733-9.946,2.071-.633,3.637-1.115,5.541-1.7,1.873,2.165,3.75,4.319,5.611,6.488,3.013,3.5,6.076,6.974,9,10.552a7.586,7.586,0,0,0,5.921,2.941c6.507.371,13,1.046,19.5,1.54C427.731,500.058,430.046,501.517,430.818,505.79Z" transform="translate(-35.181 -91.582)"/><path class="w" d="M478.8,505.4q.628,13.148,1.256,26.3c.093,2.011.241,4.026.182,6.036-.062,2.254-.7,2.717-2.955,2.52-.143-.011-.283-.062-.427-.077-7.127-.942-8.612-2.351-8.822-9.6-.469-16.392-.659-32.795-1.144-49.19-.128-4.3,1.788-7.789,3.486-11.4,1.222-2.6,3.567-1.2,5.4-1,1.745.193,3.389.965,3.451,3.176.019.575-.062,1.15-.062,1.725q-.006,15.747,0,31.5Z" transform="translate(-462.898 -119.743)"/><path class="ad" d="M453.69,480.241c7.7-.625,14.471-1.154,21.242-1.729,2.742-.235,5.471-.614,8.213-.841,3.021-.251,3.661.15,4.087,3.049a95.263,95.263,0,0,1,.993,9.888c.12,3.014-.659,3.813-3.757,4.122q-12.75,1.268-25.523,2.35c-3.048.259-3.661-.251-3.975-3.134C454.485,489.554,454.14,485.15,453.69,480.241Z" transform="translate(-419.694 -93.502)"/><path class="aa" d="M378.736,474.015c2.234-1.733,4.258-3.3,6.569-5.095,1.3,1.432,2.486,2.636,3.548,3.948,8.566,10.529,17.089,21.093,25.674,31.6.876,1.077,1.97,2.478,3.156,2.7,2.854.529,3.734,2.316,4.285,4.925-1.885.513-3.73.888-5.479,1.521-3.68,1.332-6.46.139-8.768-2.76Q393.7,493.226,379.67,475.609A16,16,0,0,1,378.736,474.015Z" transform="translate(-62.778 -118.342)"/><path class="w" d="M467.248,489.713c-1.59.073-3.18.174-4.77.216-3.416.089-3.878-.139-4.405-3.292a77.278,77.278,0,0,1-1.264-10.695c-.128-5.018,2.389-8.232,6.7-9.379,5.347-1.42,10.516-.127,12.529,4.072a97.615,97.615,0,0,1,5.336,14.944c.744,2.571-.015,3.219-2.877,3.5-3.738.367-7.5.56-11.242.826Z" transform="translate(-425.183 -126.668)"/><path class="w" d="M465.792,486.892c-.155,1.567-1.322,2.2-2.955,2.169a3.048,3.048,0,0,1-3-3.065,2.694,2.694,0,0,1,2.773-2.74C464.292,483.114,465.866,484.878,465.792,486.892Z" transform="translate(-421.095 -77.37)"/><path class="w" d="M458.956,484.933c-.1,2.521-1.33,3.817-2.718,3.512a2.745,2.745,0,0,1-2.455-3.053c.128-1.637,1.105-2.968,2.753-2.578C457.614,483.069,458.428,484.439,458.956,484.933Z" transform="translate(-390.728 -78.808)"/><path class="v" d="M487.207,497.313a20.437,20.437,0,0,1-3.692,11.447c-4.021,5.427-10.1,5.354-14.111-.116-4.762-6.5-4.719-18.1.093-24.5,4.056-5.407,10.1-5.353,14.119.124C485.838,487.294,487.227,492.018,487.207,497.313Z" transform="translate(-465.861 -86.317)"/><path class="ac" d="M482.165,493.252c-.163,3.466-.7,6.712-2.784,9.475-2.784,3.69-6.515,3.7-9.353.077-3.711-4.743-3.742-14.308-.054-19.124,2.815-3.682,6.534-3.732,9.345-.073C481.529,486.483,482.04,489.879,482.165,493.252Z" transform="translate(-466.111 -84.112)"/><path class="ae" d="M472.463,473.207l-6.728-1.86c.217-1.332.415-2.516.663-4.037,2.893.4,5.452.695,7.992,1.115,1.718.286,2.9,1.146,2.9,3.145q-.017,21.357.012,42.714c0,.251-.217.506-.423.953h-4.932C471.8,501.1,472.265,487.229,472.463,473.207Z" transform="translate(-455.463 -122.949)"/><path class="ae" d="M478.825,488.257c-7.872.726-15.592,1.436-23.732,2.188-.469-3.153-.88-5.921-1.388-9.34,8.508-.652,16.608-1.273,25.12-1.922Z" transform="translate(-414.912 -90.297)"/><path class="v" d="M460.009,469.805c4.781-6.43,18.958-8.26,24.658-3.416-.178.17-.38.51-.527.49-5.964-.841-10.958,1.725-15.9,4.454C464.534,473.383,463.786,473.279,460.009,469.805Z" transform="translate(-440.629 -133.43)"/><path class="ac" d="M568.865,438.4c-2.105,1.173-3.583,2-5.01,2.794-3.284-2.7-6.313-5.357-9.524-7.777-6.77-5.095-14.522-5.978-22.676-4.906-9.047,1.189-14.5,6.253-18.213,14.57-6.17,13.833-8.108,28.538-10.09,43.192-3,22.143-5.417,44.385-10.039,66.25-3.013,14.265-7.872,28.028-16.5,40.136-2.583,3.628-4.913,7.329-8.457,10.305-6.216,5.218-13.409,7.295-21.2,7.681-4.165.2-15.813-1.887-19.982-2.266a4.173,4.173,0,0,1-4.122-3.771c-.442-3.13,1.536-4.89,4.622-4.161,10.427,2.466,27.881,3.065,35.989-4.192,4.529-4.053,8.112-9.39,11.323-14.632,9.082-14.821,12.149-31.629,15.03-48.4,3.122-18.187,5.588-36.458,7.841-54.779a176.423,176.423,0,0,1,9.058-38.2,26.832,26.832,0,0,1,11.843-14.458,30.634,30.634,0,0,1,9.357-3.134,41.445,41.445,0,0,1,17.62.228c6.724,1.54,12.428,4.369,16.953,9.615C564.375,434.453,566.419,436.089,568.865,438.4Z" transform="translate(-381.298 -253.028)"/><path class="aa" d="M469.74,480.54c-4.754-5.99-9.454-12.027-14.32-17.924-1.764-2.142-2.672-4.006-1.7-6.955a14.827,14.827,0,0,0-2.869-14.608c-2.268-2.8-4.331-5.77-6.619-8.557a28.919,28.919,0,0,0-9.942-8.194,6.5,6.5,0,0,0-6.949.482c-3.68,2.489-7.371,4.963-11.04,7.472-.194.131-.213.51-.384.946.768,1.289,1.594,2.675,2.625,4.412a13.616,13.616,0,0,0-2.711.023c-4.9,1.243-5.518,3.462-3.684,7.021,1.648,3.192,3.978,5.183,7.682,5.485,3.6.293,7.209.625,10.788,1.119a6.307,6.307,0,0,1,3.459,1.389c2.517,2.536,4.785,5.315,7.232,8.1-1.9,1.845-3.571,3.474-5.231,5.091,2.73,3.879,5.405,6.731,10.167,6.1,2.261-.3,3.8.818,5.111,2.575,1.47,1.957,3.133,3.775,4.719,5.646,2.881,3.381,5.766,6.758,8.907,10.44,2.653-2.211,5.041-4.2,7.558-6.291C471.438,482.825,470.624,481.655,469.74,480.54Zm-25.376-31.757c-1.186-1.455-2.435-2.872-3.521-4.4-2.644-3.725-5.716-6.615-10.78-5.689-1.408-2.127-2.656-4.014-3.909-5.909a6.993,6.993,0,0,1,.9-1.123c4.68-3.624,5.681-3.694,9.865.552,3.443,3.493,6.631,7.245,9.772,11.015,2.346,2.818,2.2,6.249,2.311,9.564l-.954.482C446.822,451.782,445.585,450.289,444.364,448.783Z" transform="translate(-239.211 -248.165)"/><path class="af" d="M420.227,430.592c2.42-.533,3.513-.992,4.591-.965,4.316.1,8.632.344,12.948.54,1.784.085,3.164.849,3.234,2.748.066,1.853-1.559,2.377-2.963,2.536a33.439,33.439,0,0,1-14.495-1.343C422.476,433.749,421.782,432.3,420.227,430.592Z" transform="translate(-242.703 -230.71)"/><path class="af" d="M417.941,440.946c-.454-.428-1.648-1.061-2.013-2.007a2.1,2.1,0,0,1,1.745-2.914,34.4,34.4,0,0,1,5.557-.787,2.891,2.891,0,0,1,2.986,3c-.14,1.629-1.291,2.038-2.75,2.111-1.438.07-2.873.286-4.312.44C419.012,440.807,418.868,440.826,417.941,440.946Z" transform="translate(-210.621 -214.665)"/><path class="x" d="M419.662,426.019c5.262,4.89,10.7,9.614,15.685,14.763,1.706,1.756,2.61,4.5,3.315,6.951,1.419,4.956,5.584,7.329,9.31,9.834,3.816,2.567,8.31-.363,8.322-4.905,0-1.146,0-2.293,0-3.775.966-.154,2.009-.316,3.668-.579-.869-1.806-1.675-3.365-2.377-4.971-.694-1.578-1.051-3.362-2-4.747a4.412,4.412,0,0,0-3.017-1.351c-5.863-.463-9.737-3.651-12.757-8.429-1.765-2.794-4.083-5.237-6.022-7.931a12.947,12.947,0,0,0-6.239-4.519c-2.687,2.7-5.285,5.318-7.883,7.931Z" transform="translate(-259.471 -268.647)"/><path class="ag" d="M455.44,494.142c3.594-2.941,7.251-5.928,11.412-9.333-6.565-8.013-13.006-15.871-19.52-23.825,1.144-1.551,2.067-2.821,3.013-4.08,6.15-8.2,12.219-16.469,18.5-24.566a46.649,46.649,0,0,0,6.565-12.073c1.57-4.068,1.093-8-.008-11.833-1.322-4.593-3.982-8.6-7.022-12.335a5.073,5.073,0,0,0-4.091-1.856c-4.37-.309-7.224,1.266-9.353,5.23-7.654,14.226-15.573,28.314-23.39,42.455-1.954,3.539-3.924,7.067-5.844,10.621a13.327,13.327,0,0,0-1.357,3.157c-1.217,5.083-.473,9.607,3.626,13.37,8.733,8.013,17.349,16.145,26.023,24.219A9.586,9.586,0,0,0,455.44,494.142Z" transform="translate(-292.042 -332.004)"/><path class="x" d="M408.317,457.03c2.858-.347,5.3-1.193,6.375-4.45a45.2,45.2,0,0,1,2.319-4.543,16.684,16.684,0,0,0,1.276-3.586c.365-1.81-.721-3-2.175-3.86-1.974-1.162-3.672-.2-5.2.926-1.4,1.034-1.105,2.516-.551,3.933.264.672.558,1.328.814,2a5.547,5.547,0,0,1-1.524,6.28c-.748.756-1.419,1.59-2.121,2.389C407.794,456.424,408.057,456.725,408.317,457.03Z" transform="translate(-170.836 -200.86)"/><path class="a" d="M416.076,522c5.115-.934,9.76-1.779,14.689-2.679,0-2.2.147-4.176-.027-6.129-.861-9.757-1.6-19.533-2.8-29.252a73.748,73.748,0,0,1,.473-18.924c2.23-16.851,4.459-33.7,6.468-50.576.52-4.35,2.045-7.993-.933-11.984-.256-.343-.934-1.164-1.45-1.759-.838.949-10.47,10.333-11.1,11.213-4.4,6.141-6.242,8.76-8.257,12.431a57.621,57.621,0,0,1-4.552,6.737c-1.342,1.853-2.047,5.408-1.962,7.685.547,15.261.849,30.533,1.594,45.786.217,4.4,1.571,8.765,2.505,13.123C412.415,505.553,414.183,513.414,416.076,522Z" transform="translate(-184.303 -315.575)"/></g><ellipse class="u" cx="88.148" cy="12.606" rx="88.148" ry="12.606" transform="translate(109.501 383.762)"/></svg>