<svg xmlns="http://www.w3.org/2000/svg" width="222.677" height="292.893" viewBox="0 0 222.677 292.893"><defs><style>.a{opacity:0.1;}.b{fill:#3fc482;}.c{fill:#59b5a1;}.d{fill:#5852ab;}.e{fill:#0c5769;}.f{fill:#3a0d87;}</style></defs><ellipse class="a" cx="61.014" cy="8.508" rx="61.014" ry="8.508" transform="translate(3.45 275.876)"/><path class="b" d="M254.072,206.377c-2.061,2.161-5.811,3.533-10.045,3.377s-7.872-1.788-9.777-4.088c2.061-2.161,5.811-3.533,10.045-3.377S252.176,204.076,254.072,206.377Z" transform="translate(-234.25 -26.691)"/><g transform="translate(3.344)"><path class="b" d="M162.445,103.38a202.125,202.125,0,0,0-23.979,15.937A271.069,271.069,0,0,0,116.531,138,272.262,272.262,0,0,0,79,181.747a269.809,269.809,0,0,0-27.5,50.8A281.365,281.365,0,0,0,35.58,288.2l4.079.686A277.782,277.782,0,0,1,54.51,233.752a266.91,266.91,0,0,1,26.438-50.676,269.9,269.9,0,0,1,36.6-44.01,267.408,267.408,0,0,1,21.545-18.932A201.051,201.051,0,0,1,162.714,103.9Z" transform="translate(25.808 -13.642)"/><path class="b" d="M33.167,78.227c-.45,6.415-4.7,13.515-11.795,18.515S6.174,103.357,0,101.621c.45-6.415,4.711-13.515,11.795-18.515S26.992,76.482,33.167,78.227Z" transform="translate(186.166 -10.233)"/><path class="b" d="M56.325,72.06c4.737,4.34,7.647,12.1,7.144,20.772S59.2,108.882,54,112.65c-4.728-4.34-7.647-12.1-7.144-20.772S51.129,75.827,56.325,72.06Z" transform="translate(115.284 -9.509)"/><path class="b" d="M142.647,0c-5.49,3.316-9.872,10.347-11.085,18.949s1.039,16.58,5.4,21.293c5.49-3.316,9.872-10.347,11.085-18.949S147,4.722,142.647,0Z" transform="translate(-42.68)"/><path class="b" d="M150.181,34.145c-.675,4.974,1.455,11.094,6.088,16.041s10.574,7.483,15.57,7.127c.675-4.974-1.455-11.094-6.088-16.041S155.178,33.789,150.181,34.145Z" transform="translate(-82.576 -4.501)"/><path class="b" d="M114.89,59.807c4.209,2.726,10.634,3.4,17.068,1.311s11.258-6.406,13.068-11.094c-4.209-2.726-10.634-3.4-17.068-1.311S116.7,55.128,114.89,59.807Z" transform="translate(-25.185 -6.266)"/><path class="b" d="M121.59,82.617c4.209,2.726,10.634,3.4,17.068,1.311s11.258-6.406,13.068-11.094c-4.209-2.726-10.634-3.4-17.068-1.311S123.409,77.938,121.59,82.617Z" transform="translate(-37.687 -9.276)"/><path class="b" d="M129.18,108.447c4.209,2.726,10.634,3.4,17.068,1.311s11.258-6.406,13.068-11.094c-4.209-2.726-10.634-3.4-17.068-1.311S130.99,103.768,129.18,108.447Z" transform="translate(-51.85 -12.684)"/><path class="b" d="M134.28,131.907c4.209,2.726,10.634,3.4,17.068,1.311s11.258-6.406,13.068-11.094c-4.209-2.726-10.634-3.4-17.068-1.311S136.1,127.22,134.28,131.907Z" transform="translate(-61.366 -15.78)"/><path class="b" d="M196.987,131.24c-4.763,1.562-11.145.556-16.835-3.116s-9.24-9.08-9.8-14.071c4.763-1.554,11.145-.556,16.835,3.116S196.425,126.249,196.987,131.24Z" transform="translate(-125.173 -14.957)"/><path class="b" d="M156.991,56.455c-.675,4.974,1.455,11.094,6.088,16.041s10.574,7.483,15.579,7.127c.675-4.974-1.455-11.094-6.088-16.041S161.988,56.108,156.991,56.455Z" transform="translate(-95.292 -7.445)"/><path class="b" d="M164.441,82.775c-.675,4.974,1.455,11.094,6.088,16.041s10.574,7.483,15.57,7.127c.675-4.974-1.455-11.094-6.088-16.041S169.438,82.428,164.441,82.775Z" transform="translate(-109.185 -10.918)"/><path class="b" d="M77.075,88.39c5.715,2.917,10.582,9.618,12.4,18.116s.147,16.606-3.862,21.623c-5.715-2.917-10.582-9.618-12.409-18.116C71.377,101.532,73.066,93.416,77.075,88.39Z" transform="translate(66.364 -11.664)"/><path class="b" d="M99,108.58c5.715,2.917,10.582,9.618,12.409,18.116s.147,16.606-3.862,21.623c-5.715-2.917-10.582-9.618-12.4-18.116C93.316,121.714,95,113.606,99,108.58Z" transform="translate(25.426 -14.328)"/><path class="b" d="M113.348,129.34c6.27,1.354,12.687,6.588,16.618,14.331s4.382,16.015,1.784,21.9c-6.27-1.354-12.687-6.589-16.618-14.331S110.75,135.217,113.348,129.34Z" transform="translate(-10.792 -17.067)"/><path class="b" d="M124.849,155.318c5.724-.243,12.444,2.83,17.579,8.628s7.387,12.856,6.46,18.524c-5.724.243-12.444-2.83-17.579-8.637S123.922,160.986,124.849,155.318Z" transform="translate(-37.699 -20.493)"/><path class="b" d="M137.759,171.648c5.724-.243,12.444,2.83,17.579,8.628s7.387,12.856,6.46,18.524c-5.724.243-12.444-2.83-17.579-8.628S136.832,177.316,137.759,171.648Z" transform="translate(-61.788 -22.648)"/><path class="b" d="M149.11,195.748c4.9-.208,10.66,2.422,15.068,7.4s6.33,11.015,5.534,15.877c-4.9.208-10.66-2.422-15.068-7.4S148.322,200.6,149.11,195.748Z" transform="translate(-79.53 -25.829)"/><path class="b" d="M151.97,220.62c3.568-2.023,8.876-2.257,14.081-.252s8.972,5.755,10.262,9.661c-3.568,2.022-8.876,2.257-14.081.252S153.26,224.518,151.97,220.62Z" transform="translate(-88.582 -28.895)"/><path class="b" d="M158.85,241c2.2-2.448,6.166-3.993,10.626-3.8s8.287,2.075,10.262,4.7c-2.2,2.448-6.166,3.993-10.626,3.8S160.824,243.63,158.85,241Z" transform="translate(-97.965 -31.297)"/><path class="b" d="M51.938,130.862c-5.456,3.385-13.691,4.08-21.883,1.241S15.81,123.614,13.61,117.572c5.456-3.385,13.691-4.08,21.883-1.241S49.739,124.82,51.938,130.862Z" transform="translate(155.609 -15.117)"/><path class="b" d="M71.908,147.3c-5.456,3.385-13.691,4.08-21.883,1.241S35.78,140.054,33.58,134.012c5.456-3.385,13.691-4.08,21.883-1.241S69.709,141.26,71.908,147.3Z" transform="translate(118.345 -17.286)"/><path class="b" d="M93.2,167.572c-5.456,3.385-13.691,4.08-21.883,1.241s-14.237-8.489-16.445-14.531c5.456-3.385,13.691-4.08,21.883-1.241S90.99,161.531,93.2,167.572Z" transform="translate(78.619 -19.961)"/><path class="b" d="M110.076,181.515c-4.434,2.752-11.136,3.316-17.8,1.007s-11.587-6.9-13.371-11.814c4.434-2.752,11.136-3.316,17.8-1.007S108.293,176.611,110.076,181.515Z" transform="translate(40.922 -22.203)"/><path class="b" d="M122.083,194.756c-3.628,2.352-9.067,2.891-14.453,1.024s-9.327-5.66-10.729-9.757c3.628-2.352,9.067-2.891,14.453-1.024S120.68,190.667,122.083,194.756Z" transform="translate(13.337 -24.263)"/><path class="b" d="M132.843,211.316c-3.628,2.352-9.067,2.891-14.453,1.024s-9.327-5.66-10.729-9.757c3.628-2.352,9.067-2.891,14.453-1.024S131.44,207.219,132.843,211.316Z" transform="translate(-6.741 -26.449)"/><path class="b" d="M144.155,226.874c-2.936,2.509-7.863,3.715-13.146,2.865s-9.569-3.568-11.569-6.875c2.936-2.509,7.863-3.715,13.146-2.856C137.868,220.85,142.155,223.558,144.155,226.874Z" transform="translate(-28.254 -28.995)"/><path class="b" d="M149.05,244.878c-3.308.946-7.707.1-11.6-2.569s-6.287-6.458-6.616-9.9c3.308-.946,7.707-.1,11.6,2.569S148.721,241.441,149.05,244.878Z" transform="translate(-43.013 -30.619)"/><path class="b" d="M155.44,256.277c-2.624.234-5.811-1.024-8.357-3.585s-3.81-5.755-3.568-8.377c2.624-.234,5.811,1.024,8.357,3.585S155.682,253.647,155.44,256.277Z" transform="translate(-60.392 -32.235)"/><path class="b" d="M159.213,259.93a6.837,6.837,0,0,1-7.292-7.309,6.837,6.837,0,0,1,7.292,7.309Z" transform="translate(-71.447 -33.327)"/><path class="b" d="M161.923,265.5a6.849,6.849,0,0,1-7.292-7.318,6.837,6.837,0,0,1,7.292,7.318Z" transform="translate(-76.504 -34.061)"/><path class="b" d="M146.893,273.879a362.75,362.75,0,0,1-3.793-58.35c.078-9.748.615-19.479,1.386-29.184.736-9.713,1.922-19.375,3.273-29.01a536.668,536.668,0,0,1,11.474-57.187q3.637-14.114,8.028-28.029c2.936-9.262,6.079-18.455,9.708-27.5l1.143.469c-3.481,9.01-6.512,18.238-9.327,27.5s-5.36,18.62-7.655,28.029a534.746,534.746,0,0,0-10.712,57.065c-1.221,9.6-2.278,19.219-2.892,28.871-.649,9.653-1.057,19.314-1.013,28.975a357.986,357.986,0,0,0,4.468,57.682Z" transform="translate(-82.656 -5.888)"/><g transform="translate(0 153.019)"><path class="c" d="M199.056,234.566c-9.058-13.3-18.592-26.293-28.776-38.767l.165-.139c10.435,12.274,20.247,25.078,29.59,38.22A461.311,461.311,0,0,1,226.058,274.7q2.858,5.13,5.56,10.356-1.052.586-2.1,1.2c-1.723-3.533-3.525-7.031-5.369-10.5A457.065,457.065,0,0,0,199.056,234.566Z" transform="translate(-159.742 -178.837)"/><path class="c" d="M240.492,176.28a13.146,13.146,0,0,1,10.21,17.04,13.146,13.146,0,0,1-10.21-17.04Z" transform="translate(-239.732 -176.28)"/><path class="c" d="M230.954,185.22c1.36,2.656,1.429,6.658-.1,10.616s-4.261,6.875-7.049,7.925c-1.36-2.656-1.429-6.658.1-10.616S228.157,186.27,230.954,185.22Z" transform="translate(-205.574 -177.46)"/><path class="c" d="M242.649,218.136c-2.269,1.936-6.131,2.925-10.331,2.344s-7.655-2.578-9.318-5.061c2.269-1.936,6.131-2.925,10.331-2.344S240.986,215.653,242.649,218.136Z" transform="translate(-216.429 -181.113)"/><path class="c" d="M231.079,233.075c-2.269,1.936-6.131,2.925-10.331,2.344s-7.655-2.578-9.318-5.061c2.269-1.936,6.131-2.925,10.331-2.344S229.416,230.593,231.079,233.075Z" transform="translate(-194.839 -183.085)"/><path class="c" d="M223.229,244.976c-2.269,1.936-6.131,2.925-10.331,2.344s-7.655-2.578-9.318-5.061c2.269-1.936,6.131-2.925,10.331-2.344S221.575,242.493,223.229,244.976Z" transform="translate(-180.191 -184.655)"/><path class="c" d="M214.5,258.106c-2.269,1.936-6.131,2.925-10.331,2.344s-7.655-2.578-9.309-5.061c2.269-1.936,6.131-2.925,10.331-2.344S212.838,255.623,214.5,258.106Z" transform="translate(-163.911 -186.388)"/><path class="c" d="M220.884,198.04c1.36,2.656,1.429,6.658-.1,10.616s-4.261,6.875-7.049,7.925c-1.36-2.656-1.429-6.658.1-10.616S218.1,199.09,220.884,198.04Z" transform="translate(-186.784 -179.151)"/><path class="c" d="M211.254,211.23c1.36,2.656,1.429,6.649-.1,10.616s-4.261,6.875-7.049,7.925c-1.36-2.656-1.429-6.658.1-10.616S208.457,212.28,211.254,211.23Z" transform="translate(-168.814 -180.892)"/><path class="c" d="M202.094,224.53c1.36,2.656,1.429,6.658-.1,10.616s-4.261,6.875-7.049,7.925c-1.36-2.656-1.429-6.658.1-10.616S199.3,225.58,202.094,224.53Z" transform="translate(-151.722 -182.647)"/><path class="c" d="M193.224,237.55c1.36,2.656,1.429,6.658-.1,10.616s-4.261,6.875-7.049,7.925c-1.36-2.656-1.429-6.658.1-10.616S190.436,238.6,193.224,237.55Z" transform="translate(-135.171 -184.365)"/></g></g><g transform="translate(31.66 239.502)"><rect class="d" width="43.004" height="40.208" transform="translate(9.933 7.925)"/><rect class="e" width="62.87" height="3.29" transform="translate(0)"/><rect class="f" width="55.154" height="7.153" transform="translate(3.862 3.29)"/></g></svg>