<svg xmlns="http://www.w3.org/2000/svg" width="213.049" height="260.405" viewBox="0 0 213.049 260.405"><defs><style>.a{opacity:0.1;}.b{fill:#5ccb8b;}.c{fill:#11404e;}.d{fill:#59b5a1;}.e{fill:#81ade1;}.f{fill:#645cb7;}.g{fill:#0c5769;}.h{fill:#410995;stroke:#410995;}</style></defs><ellipse class="a" cx="63.001" cy="8.764" rx="63.001" ry="8.764" transform="translate(58.55 242.878)"/><path class="b" d="M96.081,106.784S87.379,71.925,66.4,62.452,44.9,79.394,58.725,99.237s49.893,42.383,49.893,42.383Z" transform="translate(5.843 7.244)"/><path class="c" d="M106.919,141.324a1.574,1.574,0,0,0,.85-.258,1.535,1.535,0,0,0,.425-2.128L66.487,76.433a1.533,1.533,0,1,0-2.55,1.7l41.706,62.506A1.515,1.515,0,0,0,106.919,141.324Z" transform="translate(7.543 9.074)"/><path class="d" d="M162.821,148.173s6.409,10.705-3.668,20.794-42.143,2.755-42.143,2.755,3.49-15.778,17.1-22.015S158.851,138.689,162.821,148.173Z" transform="translate(13.859 17.106)"/><path class="e" d="M150.358,76.4c2.64-12.508-.224-23.851-8.925-30.066,10.413-20.57,7.415-43.055-10.659-45.9C112.488-2.441,89.627,8.734,95.342,37.8a82.8,82.8,0,0,0,2.226,8.813c-12.4,6.427-20.579,18.711-16.184,37.669.089.4.19.806.291,1.209-7.3,9.171-10.715,22.026-7.08,38.923C83.99,168,109.132,175.67,109.132,175.67s22.794-6.226,40.644-37.356C163.276,114.754,163.88,89.279,150.358,76.4Z" transform="translate(8.662 0.001)"/><path class="d" d="M114.013,185.5s-5.313-40.334-9.6-44.623c-4.451-4.457-5.76,1.9-5.76,1.9s-3.6-31.051-12-35.3-12.963,5.229-12.963,5.229S76.7,79.187,51.057,76.578c-12.3-1.243-15.088,13.381-15.088,13.381S19.64,69.423,4.351,87.037c-12.795,14.736,6.7,28.543,6.7,28.543s-14.965,9.608-4,23.258,29.448,9.876,29.448,9.876S26,159.3,35.7,164.189s33.307.2,33.307.2-12.426,5.666-2.975,10.436S114.013,185.5,114.013,185.5Z" transform="translate(0.001 9.164)"/><path class="c" d="M117.3,36.78a1.538,1.538,0,0,0-1.644,1.422L102.6,210.334a1.531,1.531,0,0,0,1.409,1.646h.123a1.546,1.546,0,0,0,1.532-1.422L118.717,38.427A1.526,1.526,0,0,0,117.3,36.78Z" transform="translate(12.152 4.406)"/><path class="c" d="M150.847,161.973l-8.1-2.755c3.232-1.176,6.118-2.15,8.064-2.777a1.54,1.54,0,0,0-.939-2.934c-1.063.347-26.127,8.443-31.887,14.21-5.961,5.968-5.458,23.448-5.436,24.187a1.534,1.534,0,0,0,1.532,1.489h.056a1.539,1.539,0,0,0,1.488-1.59c-.157-4.681.369-17.737,4.541-21.914,2.606-2.609,10.558-6.1,18.04-8.981l11.654,3.964a1.545,1.545,0,0,0,1.946-.963A1.528,1.528,0,0,0,150.847,161.973Z" transform="translate(13.328 18.378)"/><path class="c" d="M112.88,182.212c-9.518-15.923-33.833-37.826-53.987-54.454l.459-28.8a1.532,1.532,0,1,0-3.064-.045l-.414,26.359c-14.64-11.948-26.451-20.682-27.581-21.522a1.537,1.537,0,0,0-1.823,2.475c.235.168,8.444,6.237,19.74,15.251H22.242a1.534,1.534,0,0,0,0,3.068H50.024c7.829,6.327,16.754,13.773,25.422,21.522L57.07,149.414a1.541,1.541,0,0,0,.268,3.057,2.553,2.553,0,0,0,.28-.022l20.713-3.774c13.477,12.261,25.9,25.038,31.92,35.116a1.537,1.537,0,0,0,1.32.75,1.6,1.6,0,0,0,.794-.213A1.566,1.566,0,0,0,112.88,182.212Z" transform="translate(2.454 11.667)"/><path class="b" d="M112.456,172.617s-7.538-42.977-1.476-42.977a7.6,7.6,0,0,1,7.538,5.073s-3.579-24.59,3.064-31.253,11.263-5.129,11.263-5.129-13.3-25.363,10.234-35.866c11.3-5.039,18.488,2.43,18.488,2.43s9.082-24.613,29.1-12.676c16.754,9.988,2.561,29.2,2.561,29.2s11.263,9.227,5.122,25.62-18.935,13.829-18.935,13.829,7.672,10.246,0,17.928-24.438,4.1-24.438,4.1,7.482,2.24,0,9.731S112.456,172.617,112.456,172.617Z" transform="translate(12.865 5.864)"/><path class="c" d="M175.215,102.223l-19.528,6.237c11.464-13.852,20.9-24.489,21.138-24.747a1.538,1.538,0,1,0-2.293-2.049c-1.174,1.31-14.909,16.808-29.3,34.724l1.789-20.245a1.538,1.538,0,1,0-3.064-.269l-2.2,24.87c-14.618,18.476-28.912,38.486-30.455,47.769-3.12,18.767-5.693,39.3-5.715,39.506a1.537,1.537,0,0,0,1.331,1.713,1.082,1.082,0,0,0,.19.011,1.542,1.542,0,0,0,1.521-1.344c.022-.2,2.595-20.682,5.693-39.382,1.711-10.279,21.038-35.732,37.747-56.168l24.057-7.682a1.534,1.534,0,0,0,1-1.926A1.5,1.5,0,0,0,175.215,102.223Z" transform="translate(12.504 9.721)"/><rect class="f" width="50.05" height="46.739" transform="translate(94.475 202.545)"/><rect class="g" width="73.168" height="3.818" transform="translate(82.823 193.329)"/><path class="h" d="M0,0H64.2V8.309H0Z" transform="translate(87.308 197.159)"/></svg>