<svg xmlns="http://www.w3.org/2000/svg" width="195.239" height="70.491" viewBox="0 0 195.239 70.491"><defs><style>.a{fill:#28cc8b;}.b{fill:#4d4d4d;}</style></defs><path class="a" d="M415.706,428.248A17.246,17.246,0,1,1,398.459,411h0A17.246,17.246,0,0,1,415.706,428.248ZM399.8,416.415a11.909,11.909,0,1,0,10.493,13.174h0A11.914,11.914,0,0,0,399.8,416.415Z" transform="translate(-248.044 -375.21)"/><path class="a" d="M443.283,431.792a13.071,13.071,0,1,1-13.072-13.072h0A13.074,13.074,0,0,1,443.283,431.792Zm-13.072-8.47a8.469,8.469,0,1,0,8.47,8.47h0a8.468,8.468,0,0,0-8.466-8.47Z" transform="translate(-248.044 -375.21)"/><path class="a" d="M400.957,418.806a10.188,10.188,0,0,0-10.169,10.168,1.127,1.127,0,0,0,2.254,0,7.917,7.917,0,0,1,7.906-7.906,1.131,1.131,0,1,0,.009-2.262Z" transform="translate(-177.764 -433) rotate(9)"/><path class="b" d="M266.694,414.71l-7.42.01-.04-29.22-11.18.01-.01-7.31,29.75-.04.01,7.31-11.15.02Z" transform="translate(-248.044 -375.21)"/><path class="b" d="M289.344,379.97a4.417,4.417,0,0,1-.37,1.81,4.711,4.711,0,0,1-2.53,2.46,4.829,4.829,0,0,1-3.71,0,4.675,4.675,0,0,1-1.51-.99,4.568,4.568,0,0,1-1.01-1.47,4.371,4.371,0,0,1-.38-1.81,4.606,4.606,0,0,1,1.38-3.28,4.743,4.743,0,0,1,1.5-1,4.625,4.625,0,0,1,1.85-.37,4.865,4.865,0,0,1,1.86.36,5.291,5.291,0,0,1,1.52.99A4.526,4.526,0,0,1,289.344,379.97Zm-1.17,34.71-7.13.01L281,387.4l7.13-.01Z" transform="translate(-248.044 -375.21)"/><path class="b" d="M320.464,411.19a13.268,13.268,0,0,1-1.11,5.4,13.975,13.975,0,0,1-3.04,4.41,14.549,14.549,0,0,1-4.51,2.99,13.961,13.961,0,0,1-5.51,1.1l-3.56-.04-.01-6.96,3.5.05a8.127,8.127,0,0,0,2.83-.43,5.685,5.685,0,0,0,1.97-1.15,5.767,5.767,0,0,0,1.28-1.67,11.071,11.071,0,0,0,.77-1.99,3.237,3.237,0,0,1-1.19,1.09,8.55,8.55,0,0,1-1.72.69,11.383,11.383,0,0,1-1.97.37c-.69.07-1.32.1-1.91.11a15.251,15.251,0,0,1-5.51-.99,13.314,13.314,0,0,1-4.52-2.84,13,13,0,0,1-3.05-4.52,15.405,15.405,0,0,1-1.12-6.04,14.515,14.515,0,0,1,1.11-5.73,14.083,14.083,0,0,1,13.06-8.74,10.976,10.976,0,0,1,2.67.33,14.132,14.132,0,0,1,2.57.92,15.606,15.606,0,0,1,2.37,1.37,18.525,18.525,0,0,1,2.11,1.7l2.74-3.24h1.71Zm-7.15-10.44a7.15,7.15,0,0,0-.56-2.76,8.176,8.176,0,0,0-1.52-2.37,7.625,7.625,0,0,0-2.24-1.65,6.279,6.279,0,0,0-2.74-.62,7.583,7.583,0,0,0-2.74.49,6.373,6.373,0,0,0-2.23,1.43,6.713,6.713,0,0,0-1.49,2.33,8.72,8.72,0,0,0-.54,3.17,8.074,8.074,0,0,0,.55,3.07,6.862,6.862,0,0,0,1.5,2.33,6.486,6.486,0,0,0,2.23,1.48,7.16,7.16,0,0,0,2.74.52,6.143,6.143,0,0,0,2.74-.63,7.645,7.645,0,0,0,2.24-1.66,8.175,8.175,0,0,0,1.52-2.37A7.273,7.273,0,0,0,313.314,400.75Z" transform="translate(-248.044 -375.21)"/><path class="b" d="M352.754,411.14a13.269,13.269,0,0,1-1.11,5.4,13.976,13.976,0,0,1-3.04,4.41,14.549,14.549,0,0,1-4.51,2.99,13.8,13.8,0,0,1-5.51,1.1l-3.56-.04-.01-6.96,3.5.05a8.127,8.127,0,0,0,2.83-.43,5.685,5.685,0,0,0,1.97-1.15,5.912,5.912,0,0,0,1.28-1.67,11.071,11.071,0,0,0,.77-1.99,3.237,3.237,0,0,1-1.19,1.09,8.553,8.553,0,0,1-1.72.69,11.384,11.384,0,0,1-1.97.37c-.69.07-1.32.1-1.91.11a15.251,15.251,0,0,1-5.51-.99,13.313,13.313,0,0,1-4.52-2.84,13,13,0,0,1-3.05-4.52,15.407,15.407,0,0,1-1.12-6.04,14.515,14.515,0,0,1,1.11-5.73,14.084,14.084,0,0,1,13.06-8.74,10.975,10.975,0,0,1,2.67.33,14.132,14.132,0,0,1,2.57.92,15.6,15.6,0,0,1,2.37,1.37,18.526,18.526,0,0,1,2.11,1.7l2.74-3.24h1.71ZM345.6,400.7a7.151,7.151,0,0,0-.56-2.76,8.175,8.175,0,0,0-1.52-2.37,7.624,7.624,0,0,0-2.24-1.65,6.279,6.279,0,0,0-2.74-.62,7.584,7.584,0,0,0-2.74.49,6.372,6.372,0,0,0-2.23,1.43,6.712,6.712,0,0,0-1.49,2.33,8.721,8.721,0,0,0-.54,3.17,8.074,8.074,0,0,0,.55,3.07,7.008,7.008,0,0,0,1.5,2.33,6.485,6.485,0,0,0,2.23,1.48,7.161,7.161,0,0,0,2.74.52,6.142,6.142,0,0,0,2.74-.63,7.644,7.644,0,0,0,2.24-1.66,8.175,8.175,0,0,0,1.52-2.37A7.231,7.231,0,0,0,345.6,400.7Z" transform="translate(-248.044 -375.21)"/><path class="b" d="M366.454,379.86a4.417,4.417,0,0,1-.37,1.81,4.711,4.711,0,0,1-2.53,2.46,4.829,4.829,0,0,1-3.71,0,4.676,4.676,0,0,1-1.51-.99,4.568,4.568,0,0,1-1.01-1.47,4.372,4.372,0,0,1-.38-1.81,4.606,4.606,0,0,1,1.38-3.28,4.858,4.858,0,0,1,1.5-1,4.625,4.625,0,0,1,1.85-.37,4.865,4.865,0,0,1,1.86.36,5.065,5.065,0,0,1,1.52.99,4.446,4.446,0,0,1,1.03,1.48A4.781,4.781,0,0,1,366.454,379.86Zm-1.17,34.7-7.13.01-.04-27.29,7.13-.01Z" transform="translate(-248.044 -375.21)"/><g transform="translate(101.8 12.06)"><path class="b" d="M377.854,445.18h-1.69l-2.72-3.72a21.624,21.624,0,0,1-2.11,1.66,15.116,15.116,0,0,1-2.34,1.35,14.542,14.542,0,0,1-2.52.9,10.483,10.483,0,0,1-2.62.33,13.8,13.8,0,0,1-12.9-8.58,15.315,15.315,0,0,1-.02-11.4,13.89,13.89,0,0,1,7.45-7.58,13.616,13.616,0,0,1,5.43-1.1,12.728,12.728,0,0,1,1.91.15,9.713,9.713,0,0,1,1.92.49,8.423,8.423,0,0,1,1.76.9,5.117,5.117,0,0,1,1.38,1.36l-.02-32.66,7.03-.01Zm-7.79-13.9a7.15,7.15,0,0,0-.56-2.76,8.1,8.1,0,0,0-1.5-2.37,7.423,7.423,0,0,0-2.22-1.65,6.16,6.16,0,0,0-2.7-.62,7.191,7.191,0,0,0-2.7.51,6.344,6.344,0,0,0-2.2,1.47,6.9,6.9,0,0,0-1.47,2.33,8.486,8.486,0,0,0-.53,3.11,7.672,7.672,0,0,0,.54,2.86,7.568,7.568,0,0,0,1.48,2.37,6.852,6.852,0,0,0,2.2,1.6,6.382,6.382,0,0,0,2.7.58,5.94,5.94,0,0,0,2.7-.63,7.506,7.506,0,0,0,2.21-1.66,7.864,7.864,0,0,0,1.49-2.37A7.008,7.008,0,0,0,370.064,431.28Z" transform="translate(-349.844 -387.27)"/><path class="b" d="M377.794,413.76" transform="translate(-349.844 -387.27)"/></g></svg>