<svg xmlns="http://www.w3.org/2000/svg" width="857.921" height="587.265" viewBox="0 0 857.921 587.265"><defs><style>.a{fill:#2880fb;}.b,.d{fill:#3f3d56;}.b{opacity:0.098;}.aa,.ad,.b,.t,.u,.v{isolation:isolate;}.c{fill:#ffb8b8;}.e{fill:#65617d;}.f{fill:#111f59;}.g{fill:#c0b4fe;}.h{fill:#d9d2fe;}.i{fill:#ffc1c7;}.j{fill:#18287d;}.k{fill:#555699;}.l{fill:red;}.m{fill:#c2d6ff;}.n{fill:#ffcece;}.o{fill:#28cc8b;}.p{fill:#eef5f8;}.q{fill:#3abba3;}.bh,.r{fill:#2f2e41;}.ad,.s{fill:#fff;}.t{fill:#fa5959;}.t,.u,.v{opacity:0.8;}.u{fill:#fed253;}.v{fill:#8ccf4d;}.w{fill:#e0e1f3;}.x{fill:#6fa3d9;}.y{fill:#6c63ff;}.z{fill:#f55f44;}.aa{opacity:0.1;}.ab{fill:#fda57d;}.ac{fill:#333;}.ad{opacity:0.6;}.ae{fill:#575a89;}.af{fill:#13bc79;}.ag{fill:#e6e6e6;}.ah{fill:#72351c;}.ai{fill:#fdb797;}.aj,.al{fill:none;stroke:#333;stroke-width:0.75px;}.aj,.bh{stroke-miterlimit:10;}.ak{fill:#858585;}.al{stroke-linecap:round;stroke-linejoin:round;}.am{fill:#341079;}.an{fill:#4d499e;}.ao{fill:#6561ac;}.ap{fill:#2c3a64;}.aq{fill:#554c8a;}.ar{fill:#352952;}.as{fill:#ffb27d;}.at{fill:#ed7d2b;}.au{fill:#ed975d;}.av{fill:#f99746;}.aw{fill:#2b478b;}.ax{fill:#f99f46;}.ay{fill:#afcdfb;}.az{fill:#c6c6c6;}.ba{fill:#ddd;}.bb{fill:#e8bd69;}.bc{fill:#ff973d;}.bd{fill:#ff7e1c;}.be{fill:#f3c6a6;}.bf{fill:#d49d7a;}.bg{fill:#f2f2f2;}.bh{stroke:#000;}</style></defs><g transform="translate(-960 -272.735)"><g transform="translate(294 89.735)"><path class="a" d="M732.259,357.222a175.478,175.478,0,0,1,26.689-32.6c41.279-39.748,153.348-133.577,297.08-125.084,253.3,14.968,432.105,338.7,353.634,449.951-21.3,30.191-63.061,51.144-131.534,57.2C1037.85,727.931,879.3,677.174,801.471,641.834c-50.308-22.846-87.369-64.637-100.24-114.4q-.877-3.382-1.646-6.868C683.732,448.8,712.513,388.458,732.259,357.222Z" transform="translate(15.121 8.343)"/><g transform="translate(734.464 183)"><g transform="translate(0 189.008)"><g transform="translate(644.984 89.411)"><path class="b" d="M1211.111,538.72c10.951,0,21.213.242,30.091.665,17.7.843,29.632,2.416,29.632,4.216,0,2.7-26.739,4.882-59.723,4.882s-59.723-2.186-59.723-4.879S1178.127,538.72,1211.111,538.72Z" transform="translate(-1126.361 -275.942)"/><path class="c" d="M1141.249,420.059s-4.217.8-4.619,1.5-.68,3.764-.26,3.647,1.4-2.608,1.4-2.608l5.979-.552C1143.823,421.115,1141.249,420.059,1141.249,420.059Z" transform="translate(-1134.301 -337.814)"/><path class="c" d="M1198.951,406.613c-4.091,5.7-11.261,17.466-17.128,19.209-4.6-.135-25.89,5.337-30.256,6.471,0,0-7.7-3.1-8.5-3.877s-8.121,1.074-8.126,3.108c0,.508,7.625-1.794,7.749-1.422.327.981,1.689,1.024.135,2.51-2.232,2.131,4.858,2.471,7.911,3.09.1-.008,27.918.129,36.309-1.5.176-.034,14.811-8.693,16.294-11.449,1.929-3.584,6.4-21.426,6.4-21.426A13.756,13.756,0,0,0,1198.951,406.613Z" transform="translate(-1134.938 -347.581)"/><g transform="translate(66.014 107.673)"><path class="c" d="M1193.7,571.074c-.8-7.151-13.427-64.63-13.427-64.63l-.742-43.909c6.477-.951,10.21-2.742,16.738-3.292-6.554,21.382-5.609,42.645-3.028,47.648,4.348,8.435,1.995,58,1.995,58l2.472.922s2.15,13.892-.342,14.259l-3.4.5C1196.56,577.572,1193.9,572.81,1193.7,571.074Z" transform="translate(-1177.699 -425.055)"/><path class="d" d="M1188.182,441.77a60.3,60.3,0,0,1,8.725,19.1c2.375,10.3-3.518,53.686-3.518,53.686s4.672,14.957,5.448,21.908l-15.1,2.516-5.412-35.266s1.839-42.052,4.316-52.977C1184.485,442.622,1183.309,438.008,1188.182,441.77Z" transform="translate(-1178.328 -434.859)"/><path class="d" d="M1199.417,436.772l-18.481,3.753s.014.146.044.417c.318,2.914,2.4,20.341,7.467,28.056q.242.365.49.7c5.908,7.96,19.667-26.874,19.667-26.874Z" transform="translate(-1176.968 -436.772)"/></g><g transform="translate(77.494 112.622)"><path class="c" d="M1195.85,571.91c0-7.373-7.026-64.409-7.026-64.409l-1.439-46.077c6.547-.3,13.1-.411,19.654-.3-8.9,21.123-6.489,39.925-4.484,45.3,3.384,9.048-4.3,58.555-4.3,58.555l2.164,1.978s.586,14.386-1.932,14.5l-3.438.158C1197.968,578.831,1195.85,573.7,1195.85,571.91Z" transform="translate(-1185.086 -429.045)"/><path class="e" d="M1206.03,441.13a59.71,59.71,0,0,1,6.557,19.877c1.219,10.489-9.453,53.029-9.453,53.029s2.988,15.344,2.988,22.337l-15.292.971-4.423-21.949s-2.3-55.994,2.631-62.83S1201.6,436.894,1206.03,441.13Z" transform="translate(-1185.874 -440.025)"/></g><path class="f" d="M1196.53,389.663c.709-1.877,2.516-5.562,4.175-4.379,1.775.919-1.305,3.311-2.451,1.483a2.205,2.205,0,0,1,.443-2.539c1.934-2.089,6.95.523,4.92,2.507l1.308.686c2.261-4.261-6.606-6.8-7.412-2.058a2,2,0,0,0,1.428,2.442,2.062,2.062,0,0,0,.44.064c1.765.012,3.174-2.045,1.528-2.889-1.943-1.348-3.861,2.37-4.7,4.575Z" transform="translate(-1102.989 -357.237)"/><path class="g" d="M1186.314,401.9a17.5,17.5,0,0,1,7.441-.583s8.088-.318,12.748,4.471-4.919,36.229-3.906,45.906c.332,3.169,6.388,5.725,8.424,9.673-5.818-.327-11.012.116-16.014.03-3.6-.061-11.914,4.885-15.943,5.15-1.768-5.436-2.433-27.454-2.666-43.684C1176.242,411.775,1183.227,402.986,1186.314,401.9Z" transform="translate(-1113.321 -347.672)"/><path class="h" d="M1197.85,404.214c5.352,5.39-3.877,36.957-3.368,45.654.234,3.107,6.044,5.861,7.793,9.932-2.7-4.158-8.672-6.037-9.084-9.827C1191.882,438.631,1201.753,409.743,1197.85,404.214Z" transform="translate(-1104.628 -346.075)"/><path class="c" d="M1194.532,390.029s1.927,15.824-1.263,20.423c-1.792,2.586-4.683,2.859-6.868,2.6a2.753,2.753,0,0,1-2.446-3.029q.014-.121.036-.242c.834-4.026,2.229-11.748,1.479-15.24C1184.429,389.709,1194.532,390.029,1194.532,390.029Z" transform="translate(-1109.388 -353.474)"/><path class="c" d="M1194.2,391.612a33.453,33.453,0,0,1-9.045,6.737,15.678,15.678,0,0,0-.186-3.8c-1.042-4.837,9.063-4.517,9.063-4.517S1194.107,390.621,1194.2,391.612Z" transform="translate(-1108.89 -353.474)"/><g transform="translate(67.643 18.649)"><path class="i" d="M1202.391,388.036c.084-1.695-1.01-4.519-2.959-6.8-4.214-4.932-12.229-3.511-15.255,2.582a7.1,7.1,0,0,0-.607,1.693,6.343,6.343,0,0,1-4.161,4.624,1.461,1.461,0,0,0,.654,1.392c.8.525.557.9.082,1.345s-.812.441-.735.934.9.939.9.939-.916.627-.832,1.155a.687.687,0,0,0,.454.613s.662.625.309,1.117a2.229,2.229,0,0,0-.076,1.777c.192.764,1.741,4.592,10.37,1.127S1202.2,391.872,1202.391,388.036Z" transform="translate(-1179.399 -378.258)"/></g><path class="f" d="M1204.2,386.283s4.458-.135,5.4,1.785a3.627,3.627,0,0,1-.587,3.7s1.886-.753.66,3.326-14.157,8.4-16.022.329S1203.512,386.23,1204.2,386.283Z" transform="translate(-1104.43 -355.426)"/><path class="j" d="M1194.38,390.128c2.176-.064,6.224.426,5.512,2.317-.9,2.918-5.142,2.23-3.98.268.864-1.836,4.774-.062,4.724,1.652a2.576,2.576,0,0,1-4.493,1.5l-.767.747c3.651,3.355,8.182-1.689,5.278-4.141-1.64-1.377-4.608-2.007-5.421-.07a1.778,1.778,0,0,0,.309,2.132,2.592,2.592,0,0,0,2.074.479c2.339-.271,3.242-2.565,2.787-3.518-.732-1.674-4.181-1.855-6.052-1.756Z" transform="translate(-1103.959 -353.633)"/><path class="j" d="M1197.937,378.024c6.512,2.719,5.634,8.639,5.159,14.306s-8.094,7.068-8.173,6.18c0,0-1.631-6.828-4.1-7.758s-7.283-8.419-7.283-8.419C1182.9,377.239,1191.425,375.305,1197.937,378.024Z" transform="translate(-1109.613 -360.373)"/><g transform="translate(16.139 17.225)"><path class="k" d="M1167.077,380.141s-21.884,13.769-21.526,15.68,7.87,8.926,9.965,8.567,14.659-21.755,14.659-21.755Z" transform="translate(-1145.546 -375.852)"/><path class="l" d="M1159.7,377.322l2.973,2.375-2.466,1.915-.1-1.614-1.366-1.126Z" transform="translate(-1138.67 -377.322)"/><path class="l" d="M1164.849,380.49l.9,2.917s-4.772,9.626-5.265,9.4,3.584-8.858,3.584-8.858l-1.413-1.849Z" transform="translate(-1137.777 -375.67)"/><path class="m" d="M1161.016,378.12l-1.318,3.075,3.1,2.494,2.757-2.033Z" transform="translate(-1138.167 -376.906)"/><path class="c" d="M1213.633,413.727c-4.8-1.451-10.957-1.421-20.013,2.462-10.674,4.579-17.872,7.434-24.242,7.434-8.509,0-3.294-28.826-2.888-30.977l-1.051-9.9-6.294,2.316,3.584,8.295c-3.6,10.872-8.059,27.131-4.77,33.873,4.039,8.276,48.483,5.024,58.138-7.143C1217.664,418.107,1215.957,414.431,1213.633,413.727Z" transform="translate(-1139.672 -374.494)"/><path class="n" d="M1211.1,410.335c-6.664-1.78-13.2-.111-19.486,2.6-4.759,2.11-22.289,9.942-26.646,7.169-5.923-3.458-2.361-24.32-1.012-30.856-.864,5.748-3.82,27.216,1.454,30.174,1.41.831,5.512.05,7.108-.3,10.454-2.264,19.454-8.293,28.546-9.56A22.071,22.071,0,0,1,1211.1,410.335Z" transform="translate(-1137.144 -371.102)"/><path class="c" d="M1156.249,381.2c.371-.354,9.513,2.364,9.513,2.364l-1.765.65S1155.371,382.043,1156.249,381.2Z" transform="translate(-1139.999 -375.316)"/><path class="c" d="M1159.948,385.083s-5.628-1.9-4.54-2.317,6.786,1.49,6.786,1.49Z" transform="translate(-1140.477 -374.515)"/><path class="c" d="M1164.627,383.608s-8.441-2.249-8.441-1.6,5.529,2.669,5.529,2.669Z" transform="translate(-1139.998 -374.939)"/><path class="c" d="M1165.54,382.825c.814.4-1.727,2.443-1.727,3.368a6.466,6.466,0,0,1-.847,2.383l-.473-3.014S1164.249,382.192,1165.54,382.825Z" transform="translate(-1136.71 -374.494)"/></g><path class="j" d="M1187.387,384.619c.78.753.762,1.891.9,2.959.181,1.486.507,1.467,1.2,2.836.821,1.613,1.132,3.2-.686,3.621a1.8,1.8,0,0,1-2.082-1.461c-.009-.049-.015-.1-.02-.146l.806-.1c.115,1.608,2.4,1.531,2.092-.319a10.572,10.572,0,0,0-1.17-2.847C1187.725,387.72,1188.47,385.806,1187.387,384.619Z" transform="translate(-1107.953 -356.292)"/><path class="o" d="M1182.749,379.644l12.695,20.039,2.735.163s4.875-17.87,8.261-17.87c0,0-6.658-5.568-10.709-5.568S1186.413,376.143,1182.749,379.644Z" transform="translate(-1110.009 -360.577)"/><path class="p" d="M1206.44,382.138c-2.866-1.943-7.974-5.395-11.435-5.139-4.557-.046-8.747-.011-12.257,2.809,2.973-3.378,8.436-3.934,13.086-3.654C1199.612,376.547,1203.748,379.557,1206.44,382.138Z" transform="translate(-1110.009 -360.74)"/><path class="p" d="M1186.688,379.158l7.668,17.763-8.491-17.417Z" transform="translate(-1108.384 -359.14)"/><path class="q" d="M1192.019,392.534s-1.083,3.626-.271,5.051a4.741,4.741,0,0,0,2.745,1.877v-4.274C1194.492,393.57,1192.019,392.534,1192.019,392.534Z" transform="translate(-1105.474 -352.165)"/><path class="q" d="M1192.485,392.352s4.021.269,5.077,2.261a16.078,16.078,0,0,0,1.9,2.936s-5.266-.4-6.366-1.456S1192.485,392.352,1192.485,392.352Z" transform="translate(-1104.99 -352.26)"/><path class="q" d="M1191.853,391.271s-1.1.123-.828,1.707,3.265,1.146,3.265,0a1.791,1.791,0,0,0-1.756-1.827A1.771,1.771,0,0,0,1191.853,391.271Z" transform="translate(-1105.715 -352.887)"/><path class="c" d="M1145.825,424.478s-2.539.085-4.261-.006-4.753-1.575-4.33-2.316,2.909,1.019,3.364.892,2-1.64,1.684-2.092S1145.422,423.294,1145.825,424.478Z" transform="translate(-1133.762 -337.372)"/><g transform="translate(20.392)"><path class="r" d="M1164.151,383.225l-15.757-16.9a.185.185,0,0,1,0-.262l.014-.011a.21.21,0,0,1,.288.015h0Z" transform="translate(-1148.341 -366)"/></g><g transform="translate(15.934 5.017)"><path class="r" d="M1145.727,369.33l20.3,12.594-20.518-12.269a.185.185,0,0,1-.071-.253l.009-.014a.21.21,0,0,1,.28-.062Z" transform="translate(-1145.411 -369.298)"/></g><g transform="translate(15.933 12.271)"><path class="r" d="M1145.67,374.071l20.006,5.564-20.116-5.188a.193.193,0,0,1-.145-.233l0,0a.2.2,0,0,1,.246-.137Z" transform="translate(-1145.411 -374.066)"/></g><g transform="translate(13.731 15.246)"><path class="r" d="M1144.2,376.025l20.76,3.189-20.82-2.805a.2.2,0,0,1-.174-.216v0a.2.2,0,0,1,.23-.166Z" transform="translate(-1143.963 -376.022)"/></g><g transform="translate(28.901 4.044)"><path class="r" d="M1154.32,368.766l6.915,13.073-7.277-12.894a.191.191,0,0,1,.073-.259l.011,0a.208.208,0,0,1,.275.078Z" transform="translate(-1153.934 -368.658)"/></g></g><g transform="translate(156.104)"><path class="d" d="M1307.655,307.232H817.969a4.359,4.359,0,0,0-4.359,4.359h0V324.3h498.41V311.591A4.363,4.363,0,0,0,1307.655,307.232Z" transform="translate(-813.602 -307.232)"/><path class="s" d="M813.6,318.454V604.479a8.794,8.794,0,0,0,8.8,8.794h480.822a8.794,8.794,0,0,0,8.794-8.794h0V318.454Z" transform="translate(-813.605 -301.381)"/><circle class="t" cx="2.039" cy="2.039" r="2.039" transform="translate(5.86 6.369)"/><circle class="u" cx="2.039" cy="2.039" r="2.039" transform="translate(11.461 6.369)"/><circle class="v" cx="2.039" cy="2.039" r="2.039" transform="translate(17.068 6.369)"/></g><path class="c" d="M770.856,416.126l1.476-11.794s-3.364-11.044-7.4-10.419S766,406.143,766,406.143l.876,5.644Z" transform="translate(-683.69 -262.049)"/><path class="r" d="M730.906,403.778a8,8,0,0,0,1.823-.6,7.9,7.9,0,1,0-6.747-14.28h0a7.9,7.9,0,0,1,4.925,14.884Z" transform="translate(-703.189 -265.048)"/><path class="w" d="M713.258,369.89A2.258,2.258,0,0,0,711,372.148v37.841a2.259,2.259,0,0,0,2.258,2.258H865.814a2.258,2.258,0,0,0,2.258-2.258V372.148a2.257,2.257,0,0,0-2.258-2.258Z" transform="translate(-711 -274.561)"/><circle class="x" cx="11.866" cy="11.866" r="11.866" transform="translate(10.167 104.645)"/><path class="s" d="M744.173,378.611a1.979,1.979,0,0,0,0,3.957H837.4a1.979,1.979,0,1,0,0-3.957Z" transform="translate(-694.735 -270.014)"/><path class="s" d="M744.173,386.411a1.979,1.979,0,0,0,0,3.957H837.4a1.979,1.979,0,1,0,0-3.957Z" transform="translate(-694.735 -265.947)"/><g transform="translate(15.226 106.841)"><path class="y" d="M727.844,393.193a11.8,11.8,0,0,0,6.533-1.956c-.435-2.393-2.107-2.533-2.107-2.533h-9.194s-1.57.129-2.068,2.331A11.832,11.832,0,0,0,727.844,393.193Z" transform="translate(-721.008 -371.594)"/><circle class="z" cx="5.74" cy="5.74" r="5.74" transform="translate(0.966 3.668)"/><path class="aa" d="M724.2,386.786h3.677v2.945a1.836,1.836,0,0,1-1.833,1.838h0a1.836,1.836,0,0,1-1.839-1.833v0h0v-2.945Z" transform="translate(-719.344 -372.593)"/><path class="ab" d="M724.551,386.694h2.979a.349.349,0,0,1,.351.348v0h0v2.594a1.837,1.837,0,0,1-1.835,1.839h0a1.838,1.838,0,0,1-1.839-1.835v0h0v-2.594a.344.344,0,0,1,.333-.351h.015Z" transform="translate(-719.342 -372.641)"/><path class="aa" d="M724.2,387.848a5.3,5.3,0,0,0,3.677.012v-.453H724.2Z" transform="translate(-719.342 -372.269)"/><circle class="ab" cx="5.27" cy="5.27" r="5.27" transform="translate(1.436 5.283)"/><circle class="z" cx="2.124" cy="2.124" r="2.124" transform="translate(4.577 1.443)"/><circle class="z" cx="1.392" cy="1.392" r="1.392" transform="translate(5.309 0.09)"/><path class="z" d="M725.265,381.5a2.118,2.118,0,0,1-1.106-2.71c-.018.027-.029.061-.046.09a2.123,2.123,0,1,0,3.873,1.737c.011-.027.027-.061.04-.1A2.12,2.12,0,0,1,725.265,381.5Z" transform="translate(-719.486 -376.763)"/><path class="aa" d="M722.947,381.7s2.22,4.511,8.491,1.888L729.98,381.3l-2.589-.931Z" transform="translate(-719.997 -375.938)"/><path class="z" d="M722.947,381.648s2.22,4.511,8.491,1.89l-1.458-2.284-2.588-.927Z" transform="translate(-719.997 -375.961)"/><path class="ac" d="M724.075,380.145a26.445,26.445,0,0,1,4.108,0A19.111,19.111,0,0,1,724.075,380.145Z" transform="translate(-719.409 -376.097)"/><path class="z" d="M725.729,377.458a1.417,1.417,0,0,0-.312.021h.081a1.393,1.393,0,0,1,.213,2.761,1.391,1.391,0,1,0,.021-2.783Z" transform="translate(-718.709 -377.457)"/><ellipse class="ab" cx="0.492" cy="0.922" rx="0.492" ry="0.922" transform="translate(0.944 9.625)"/><ellipse class="ab" cx="0.492" cy="0.922" rx="0.492" ry="0.922" transform="translate(11.486 9.625)"/><path class="z" d="M722.731,381.468l1.028-.531.23.849-.627.431Z" transform="translate(-720.11 -375.643)"/></g><g transform="translate(440.306 44.329)"><path class="w" d="M1002.749,336.369a2.344,2.344,0,0,0-2.343,2.345h0v39.248a2.343,2.343,0,0,0,2.343,2.344h158.2a2.344,2.344,0,0,0,2.343-2.343V338.714a2.345,2.345,0,0,0-2.343-2.345h-158.2Z" transform="translate(-1000.406 -336.369)"/><circle class="x" cx="12.304" cy="12.304" r="12.304" transform="translate(10.546 9.656)"/><path class="s" d="M1034.809,345.412a2.051,2.051,0,1,0-.01,4.1h96.686a2.051,2.051,0,0,0,0-4.1Z" transform="translate(-983.54 -331.654)"/><path class="s" d="M1034.809,353.5a2.052,2.052,0,1,0-.01,4.1h96.686a2.052,2.052,0,0,0,0-4.1Z" transform="translate(-983.54 -327.437)"/><path class="w" d="M1002.749,380.657a2.344,2.344,0,0,0-2.343,2.344h0v39.248a2.343,2.343,0,0,0,2.343,2.343h158.2a2.343,2.343,0,0,0,2.343-2.343h0V383a2.345,2.345,0,0,0-2.343-2.344h-158.2Z" transform="translate(-1000.406 -313.277)"/><circle class="x" cx="12.304" cy="12.304" r="12.304" transform="translate(10.546 77.037)"/><path class="s" d="M1034.809,389.7a2.051,2.051,0,1,0-.01,4.1h96.686a2.051,2.051,0,0,0,0-4.1Z" transform="translate(-983.54 -308.562)"/><path class="s" d="M1034.809,397.787a2.052,2.052,0,1,0-.01,4.1h96.686a2.052,2.052,0,0,0,0-4.1Z" transform="translate(-983.54 -304.345)"/><path class="w" d="M1002.749,424.946a2.344,2.344,0,0,0-2.343,2.343h0v39.249a2.344,2.344,0,0,0,2.343,2.343h158.2a2.344,2.344,0,0,0,2.343-2.343h0V427.289a2.344,2.344,0,0,0-2.343-2.343h-158.2Z" transform="translate(-1000.406 -290.184)"/><circle class="x" cx="12.304" cy="12.304" r="12.304" transform="translate(10.546 144.418)"/><path class="s" d="M1034.809,433.988a2.051,2.051,0,1,0-.01,4.1h96.686a2.051,2.051,0,0,0,0-4.1Z" transform="translate(-983.54 -285.469)"/><path class="s" d="M1034.809,442.075a2.052,2.052,0,1,0-.01,4.1h96.686a2.052,2.052,0,0,0,0-4.1Z" transform="translate(-983.54 -281.253)"/></g><circle class="ad" cx="0.878" cy="0.878" r="0.878" transform="translate(565.545 16.545)"/><ellipse class="aa" cx="48.857" cy="10.013" rx="48.857" ry="10.013" transform="translate(14.271 338.157)"/><path class="ae" d="M757.541,454.514l31.329-16.427.52-33.95-10.615.815-4.191,26.264-36.051,7.245Z" transform="translate(-696.645 -256.705)"/><path class="af" d="M757.541,454.514l31.329-16.427.52-33.95-10.615.815-4.191,26.264-36.051,7.245Z" transform="translate(-696.645 -256.705)"/><path class="r" d="M751.138,465.049l-6.468,56.636-1.576,46.745,12.246-.012,7.3-47.661,4.024-48.542Z" transform="translate(-694.266 -224.944)"/><path class="r" d="M743.689,532.363c-1.62.178-1.438,9.194-1.26,10.816s28.849.9,30.836-3.434-11.181-4.5-11.181-4.5l-8.657-3.968Z" transform="translate(-694.672 -190.415)"/><path class="r" d="M762.911,461.291,774.358,472.7l-8.92,49-35.87,40.868L718.942,553.6l29.348-37.594.777-30.209c-5.724-9.787-5.952-16.092-5.952-16.092Z" transform="translate(-706.859 -226.904)"/><path class="r" d="M731.578,528.485l.012,10.615a58.779,58.779,0,0,1,3.276,5.713c1.637,3.26-3.262,3.27-3.262,3.27-10.607,2.465-14.717-16.311-16.354-20.392s8.152-5.724,8.152-5.724Z" transform="translate(-708.88 -195.267)"/><path class="c" d="M777.053,417.631l3.409-11.989s-1.728-11.981-6.005-11.975-.838,12.838-.838,12.838l.006,5.987Z" transform="translate(-679.032 -262.164)"/><path class="o" d="M756.631,449.066l33.457-11.474,5.673-33.48-10.613-.8-8.133,25.319-36.738,1.683Z" transform="translate(-695.735 -257.137)"/><path class="r" d="M752.314,426.358a13.231,13.231,0,0,0,9.06-16.367h0a16.65,16.65,0,0,0-16.666-16.631h0a16.646,16.646,0,0,0-16.631,16.666v0h0a12.732,12.732,0,0,0,12.5,15.255l4.951,1.211A13.274,13.274,0,0,0,752.314,426.358Z" transform="translate(-702.228 -262.324)"/><circle class="r" cx="7.904" cy="7.904" r="7.904" transform="translate(17.058 127.926)"/><circle class="c" cx="12.246" cy="12.246" r="12.246" transform="translate(36.353 140.507)"/><path class="c" d="M750.621,413l1.654,13.874-13.063.017L739.2,413.01Z" transform="translate(-696.298 -252.084)"/><path class="o" d="M768.922,428.192c7.356,4.076,1.654,17.959,1.654,17.959l2.515,51.434-13.061,1.649-26.13-1.6,7.317-28.584s-4.131-40-4.952-41.63,5.707-8.171,5.707-8.171l12.369-.993,3.957.972A32.085,32.085,0,0,0,768.922,428.192Z" transform="translate(-699.06 -249.343)"/><path class="r" d="M729.259,411.2l5.73,8.967,8.985,4.89,8.876-15.521,2.185-3.587,1.839,4.605,8.2,2.08a12.42,12.42,0,0,0-5.724-12.129l-8.193-5.136-10.654,1.963Z" transform="translate(-701.48 -261.278)"/><path class="w" d="M855.248,422.385a2.525,2.525,0,1,0,0,5.05H974.3a2.525,2.525,0,1,0,0-5.05Z" transform="translate(-637.105 -247.19)"/><path class="w" d="M856.25,433.676a2.526,2.526,0,0,0,0,5.051H975.3a2.526,2.526,0,0,0,0-5.051Z" transform="translate(-636.578 -241.303)"/><path class="w" d="M854.82,444.968a2.525,2.525,0,0,0,0,5.05H973.869a2.525,2.525,0,0,0,0-5.05Z" transform="translate(-637.324 -235.415)"/><rect class="w" width="162.803" height="101.381" transform="translate(200.899 49.111)"/><rect class="s" width="29.818" height="19.382" transform="translate(211.815 68.64)"/><rect class="s" width="29.818" height="19.382" transform="translate(248.863 68.64)"/><rect class="s" width="29.818" height="19.382" transform="translate(285.916 68.64)"/><rect class="s" width="29.818" height="19.382" transform="translate(322.963 68.64)"/><rect class="s" width="29.818" height="19.382" transform="translate(211.815 96.073)"/><rect class="s" width="29.818" height="19.382" transform="translate(248.863 96.073)"/><rect class="s" width="29.818" height="19.382" transform="translate(285.916 96.073)"/><rect class="s" width="29.818" height="19.382" transform="translate(322.963 96.073)"/><rect class="s" width="29.818" height="19.382" transform="translate(211.815 123.505)"/><rect class="s" width="29.818" height="19.382" transform="translate(248.863 123.505)"/><rect class="s" width="29.818" height="19.382" transform="translate(285.916 123.505)"/><rect class="s" width="29.818" height="19.382" transform="translate(322.963 123.505)"/><circle class="s" cx="4.47" cy="4.47" r="4.47" transform="translate(239.066 52.093)"/><circle class="s" cx="4.47" cy="4.47" r="4.47" transform="translate(313.015 52.093)"/><rect class="ag" width="3.58" height="20.571" transform="translate(241.749 37.182)"/><rect class="ag" width="3.58" height="20.571" transform="translate(315.693 37.182)"/><path class="y" d="M942.115,361.025a6.714,6.714,0,1,1-1.038-3.6A6.8,6.8,0,0,1,942.115,361.025Z" transform="translate(-597.496 -282.694)"/><path class="s" d="M940.042,356.691,933.4,363.33c-.415-.645-2.742-3.645-2.742-3.645a9.718,9.718,0,0,1,.949-.837l1.928,2.571,5.725-5.725A6.073,6.073,0,0,1,940.042,356.691Z" transform="translate(-596.466 -281.963)"/><path class="y" d="M893.41,379.056a6.714,6.714,0,1,1-1.038-3.6A6.814,6.814,0,0,1,893.41,379.056Z" transform="translate(-622.891 -273.292)"/><path class="s" d="M891.337,374.725l-6.638,6.638c-.417-.645-2.742-3.645-2.742-3.645a9.948,9.948,0,0,1,.949-.837l1.928,2.573,5.725-5.727A6.087,6.087,0,0,1,891.337,374.725Z" transform="translate(-621.861 -272.561)"/><path class="o" d="M869.057,379.056a6.714,6.714,0,1,1-1.038-3.6A6.713,6.713,0,0,1,869.057,379.056Z" transform="translate(-635.588 -273.292)"/><path class="s" d="M866.984,374.725l-6.638,6.638c-.417-.645-2.743-3.645-2.743-3.645a10.129,10.129,0,0,1,.949-.837l1.928,2.573,5.727-5.727A5.879,5.879,0,0,1,866.984,374.725Z" transform="translate(-634.56 -272.561)"/><g transform="translate(456.366 194.02)"><path class="y" d="M1017.647,449.042a11.587,11.587,0,0,0,6.4-1.915c-.427-2.345-2.063-2.478-2.063-2.478h-9.005s-1.538.129-2.02,2.285A11.541,11.541,0,0,0,1017.647,449.042Z" transform="translate(-1010.962 -429.601)"/><circle class="ah" cx="5.625" cy="5.625" r="5.625" transform="translate(0.937 1.881)"/><path class="aa" d="M1014.081,442.769h3.6v2.881a1.8,1.8,0,0,1-1.8,1.806h0a1.8,1.8,0,0,1-1.8-1.8v-2.889Z" transform="translate(-1009.336 -430.581)"/><path class="ab" d="M1014.418,442.68h2.918a.346.346,0,0,1,.342.342v2.536a1.8,1.8,0,0,1-1.8,1.8h0a1.8,1.8,0,0,1-1.794-1.8v-2.536a.333.333,0,0,1,.324-.342h0Z" transform="translate(-1009.332 -430.627)"/><path class="aa" d="M1014.085,443.811a5.181,5.181,0,0,0,3.6.012v-.444h-3.6Z" transform="translate(-1009.334 -430.263)"/><circle class="ab" cx="5.162" cy="5.162" r="5.162" transform="translate(1.4 3.463)"/><path class="aa" d="M1012.856,437.787s2.174,4.418,8.314,1.846l-1.43-2.244-2.53-.908Z" transform="translate(-1009.974 -433.86)"/><path class="ah" d="M1012.856,437.745s2.174,4.417,8.314,1.845l-1.43-2.244-2.53-.908Z" transform="translate(-1009.974 -433.882)"/><path class="ah" d="M1012.882,438.321a2.941,2.941,0,0,1,.738-1.2c1.015-1,2.684-1.213,3.533-2.361a.676.676,0,0,1-.245.914.273.273,0,0,1-.059.029,2.593,2.593,0,0,0,2.227-.75,1.53,1.53,0,0,1-.257,1.617,1.551,1.551,0,0,1,1.547,1.248,1.456,1.456,0,0,1-.668,1.219,3.648,3.648,0,0,1-1.348.5C1016.972,439.844,1011.98,441.122,1012.882,438.321Z" transform="translate(-1010.017 -434.758)"/><path class="ah" d="M1022.209,440.458h-.135l-2.666,2.373a4.791,4.791,0,0,0-4.453,0l-2.795-2.273-.281.035a5.166,5.166,0,0,0,10.33-.135Zm-5.167,3.282c-1,0-1.817-.205-1.817-.458s.814-.456,1.817-.456,1.815.205,1.815.456S1018.043,443.74,1017.042,443.74Z" transform="translate(-1010.484 -431.786)"/><ellipse class="ab" cx="0.48" cy="0.902" rx="0.48" ry="0.902" transform="translate(0.914 7.717)"/><ellipse class="ab" cx="0.48" cy="0.902" rx="0.48" ry="0.902" transform="translate(11.243 7.717)"/></g><g transform="translate(455.281 126.118)"><path class="y" d="M1018,405.05a12.831,12.831,0,0,0,7.423-2.38c-.5-2.912-2.393-3.081-2.393-3.081h-10.438s-1.788.158-2.344,2.836A12.781,12.781,0,0,0,1018,405.05Z" transform="translate(-1010.249 -385.194)"/><path class="aa" d="M1013.87,397.256h4.176v3.58a2.168,2.168,0,0,1-2.086,2.238h0a2.164,2.164,0,0,1-2.086-2.238h0v-3.58Z" transform="translate(-1008.361 -386.411)"/><path class="ai" d="M1014.266,397.144h3.381a.414.414,0,0,1,.4.427v3.152a2.168,2.168,0,0,1-2.086,2.238h0a2.164,2.164,0,0,1-2.086-2.238h0v-3.152a.4.4,0,0,1,.382-.426Z" transform="translate(-1008.36 -386.469)"/><path class="aa" d="M1013.874,398.549a5.621,5.621,0,0,0,4.176.012v-.549h-4.176Z" transform="translate(-1008.359 -386.017)"/><ellipse class="ai" cx="5.982" cy="6.416" rx="5.982" ry="6.416" transform="translate(1.623)"/><ellipse class="ai" cx="0.556" cy="1.119" rx="0.556" ry="1.119" transform="translate(1.19 5.021)"/><ellipse class="ai" cx="0.556" cy="1.119" rx="0.556" ry="1.119" transform="translate(12.885 5.021)"/><path class="aj" d="M1013.368,394.364h1.523a.534.534,0,0,1,.513.554v.266a.542.542,0,0,1-.513.557h-1.523a.534.534,0,0,1-.513-.555h0v-.263A.541.541,0,0,1,1013.368,394.364Z" transform="translate(-1008.89 -387.919)"/><path class="aj" d="M1018.007,395.741h-1.525a.536.536,0,0,1-.513-.555h0v-.263a.542.542,0,0,1,.513-.557h1.525a.535.535,0,0,1,.513.554v.266A.542.542,0,0,1,1018.007,395.741Z" transform="translate(-1007.266 -387.919)"/><path class="aj" d="M1014.47,394.532a3.021,3.021,0,0,1,2.32,0" transform="translate(-1008.048 -387.952)"/><path class="ak" d="M1017.971,391.291l1.471,3.656C1019.436,394.947,1021.234,392.522,1017.971,391.291Z" transform="translate(-1006.223 -389.521)"/><line class="al" y1="2.103" x2="2.191" transform="translate(11.256 5.033)"/><path class="ak" d="M1013.205,391.291l-1.47,3.656S1009.942,392.522,1013.205,391.291Z" transform="translate(-1009.73 -389.521)"/><line class="al" x1="2.221" y1="2.103" transform="translate(1.741 5.033)"/></g><g transform="translate(455.258 59.778)"><path class="ac" d="M1024.44,354.135c0,4.207-3.023,6.274-6.944,6.274s-7.259-2.068-7.259-6.274a7.118,7.118,0,1,1,14.2,0Z" transform="translate(-1010.232 -346.523)"/><path class="y" d="M1017.493,360.68a12.567,12.567,0,0,0,6.95-2.08c-.462-2.544-2.238-2.69-2.238-2.69h-9.774s-1.671.135-2.2,2.478A12.621,12.621,0,0,0,1017.493,360.68Z" transform="translate(-1010.234 -341.629)"/><path class="aa" d="M1013.629,353.865h3.908v3.128a1.957,1.957,0,0,1-1.952,1.958h-.006a1.957,1.957,0,0,1-1.957-1.958Z" transform="translate(-1008.467 -342.695)"/><path class="ab" d="M1014,353.772h3.161a.379.379,0,0,1,.376.376V356.9a1.957,1.957,0,0,1-1.956,1.956h-.006a1.957,1.957,0,0,1-1.958-1.956v-2.754a.384.384,0,0,1,.382-.376Z" transform="translate(-1008.47 -342.743)"/><path class="aa" d="M1013.63,355a5.652,5.652,0,0,0,3.908.012v-.481h-3.908Z" transform="translate(-1008.463 -342.347)"/><circle class="ab" cx="5.602" cy="5.602" r="5.602" transform="translate(1.528 1.708)"/><path class="aa" d="M1010.677,353.783a10.028,10.028,0,0,0,6.128-3.808s3.492,3.845,5.924,3.417a2.113,2.113,0,0,0,0-2.958c-1.412-1.483-2.5-3.346-4.371-3.1s-4.16.35-5.144,1.235S1010.677,353.783,1010.677,353.783Z" transform="translate(-1010.003 -346.111)"/><path class="ac" d="M1010.677,353.74a10.027,10.027,0,0,0,6.128-3.808s3.492,3.846,5.924,3.419a2.115,2.115,0,0,0,0-2.959c-1.412-1.482-2.5-3.346-4.371-3.1s-4.154.342-5.139,1.237S1010.677,353.74,1010.677,353.74Z" transform="translate(-1010.003 -346.133)"/><ellipse class="ab" cx="0.521" cy="0.978" rx="0.521" ry="0.978" transform="translate(1.001 6.325)"/><ellipse class="ab" cx="0.521" cy="0.978" rx="0.521" ry="0.978" transform="translate(12.21 6.325)"/></g><g transform="translate(303.635 50.36)"><ellipse class="aa" cx="18.783" cy="6.116" rx="18.783" ry="6.116" transform="translate(62.165 299.15)"/><ellipse class="aa" cx="18.783" cy="6.116" rx="18.783" ry="6.116" transform="translate(140.727 299.15)"/><g transform="translate(0 100.519)"><path class="w" d="M910.77,515.023a1.794,1.794,0,0,0,.784,2.411l26.7,13.647a1.794,1.794,0,0,0,2.411-.784l55.01-107.643a1.794,1.794,0,0,0-.784-2.411L968.19,406.6a1.793,1.793,0,0,0-2.41.782Z" transform="translate(-910.575 -406.403)"/><circle class="x" cx="9.405" cy="9.405" r="9.405" transform="translate(53.613 13.166)"/><path class="s" d="M919.8,498.145l-.008.006h0a1.568,1.568,0,1,0,2.8,1.421l33.617-65.783a1.567,1.567,0,1,0-2.79-1.426h0Z" transform="translate(-905.857 -393.311)"/><path class="s" d="M925.3,500.96a1.567,1.567,0,1,0,2.79,1.427L961.7,436.6V436.6a1.568,1.568,0,0,0-2.8-1.419Z" transform="translate(-902.988 -391.847)"/></g><g transform="translate(68.74)"><path class="r" d="M984.864,479.71l-3.775,7.379s-6.527-2.013-4.972,3.831a102.656,102.656,0,0,0,18.735-1.129s2.612.908,3.055-.656-1.61-6.874-3.149-6.8S984.864,479.71,984.864,479.71Z" transform="translate(-945.265 -267.66)"/><path class="r" d="M1002.152,478.213s-3.673,9.436-2.118,9.877,15.527,1.85,16.571,2.317,6.212.736,6.577-2.367-2.763-3.989-2.763-3.989-5.692-.764-7.479-5.826C1011.185,473.163,1002.152,478.213,1002.152,478.213Z" transform="translate(-932.869 -269.609)"/><path class="c" d="M1009.355,364.887v-7.651s-8.451-16.9-1.61-16.9,7.651,15.295,7.651,15.295V366.5Z" transform="translate(-930.042 -340.333)"/><path class="c" d="M962.617,409.484s-4.424-2.417-5.232,0-3.222,7.651,0,8.048,6.437-2.418,6.437-2.418Z" transform="translate(-955.756 -304.837)"/><path class="am" d="M974.868,420.989s-2.424,3.2,1.092,34.43,1.489,53.967,8.167,53.651c0,0-1.742,6.773,3.931,7.02s8.263.644,8.706-.92,1.129-8.8-.411-8.73c0,0,.091,2.051.736-6.212s-1.181-47.289,1.149-52.545l9.1,18.613s.409,8.73,2.139,12.763,5.4,27.538,5.4,27.538l-.347,3.618s12.422,1.473,12.839-.6.271-5.156-.291-6.16-.561-1,.368-3.105a6.22,6.22,0,0,0,.272-5.156c-.587-1.515-2.147-34.891-2.147-34.891s-2.921-40.517-9.177-42.283S974.868,420.989,974.868,420.989Z" transform="translate(-946.216 -300.032)"/><circle class="c" cx="10.749" cy="10.749" r="10.749" transform="translate(23.679 22.907)"/><path class="c" d="M974.664,366.783s2.828,14.714,1.7,17.542,15.842-1.13,15.842-1.13-3.4-14.712-2.828-18.109S974.664,366.783,974.664,366.783Z" transform="translate(-945.898 -328.036)"/><path class="r" d="M982.371,353.76a6.062,6.062,0,0,0-2.69.119,6.972,6.972,0,0,0-1.912,1.257,22.185,22.185,0,0,1-3.27,2.165,7.778,7.778,0,0,0-2.544,1.78,5.457,5.457,0,0,0-.719,1.357,16.254,16.254,0,0,0-.858,8.861,4.183,4.183,0,0,0,.377,1.219c.587,1.085,1.888,1.509,2.979,2.077,2.078,1.079,3.656,2.9,5.36,4.5a10.434,10.434,0,0,0,2.116,1.629c2.431,1.325,5.4.89,8.13.421a1.466,1.466,0,0,0,1.465-1.468v-.017l2.151-9.688a15.729,15.729,0,0,0,.554-4.406,12.542,12.542,0,0,0-3.151-7.278C988.355,354.347,985,354.036,982.371,353.76Z" transform="translate(-948.271 -333.383)"/><path class="an" d="M976.967,380.537s.809-5.637,5.637-6.04a39.65,39.65,0,0,0,8.048-1.61c.4,0,5.637.4,8.048,2.816,0,0,1.61,2.418,2.417.808s.808-2.417,2.417-1.61,1.608-2.418,4.424-2.013,10.061,18.513,10.061,18.513l-2.417,2.815s-3.222,21.732,2.417,30.991,8.048,19.322,2.418,21.335-45.079,20.122-43.47,8.855.4-28.977-1.2-29.382S965.3,393.821,965.3,393.821a12.515,12.515,0,0,1,7.246-9.259C978.977,381.744,976.967,380.537,976.967,380.537Z" transform="translate(-950.782 -323.376)"/><path class="ao" d="M992.014,383.867l2.013-1.61s3.623,0,4.027-.808,2.418-.808,4.027-1.61-.4-2.013,1.608-2.815,2.014,0,2.014-2.013,5.232-4.027,5.637-6.439,4.424-13.684,4.424-13.684l7.65,2.417L1021.4,371.8s0,7.246-3.623,12.075-11.671,16.9-15.7,17.308S992.014,383.867,992.014,383.867Z" transform="translate(-936.851 -332.743)"/><path class="ao" d="M970.609,385.31l-2.418,2.013s-.809,8.856-.809,9.259.809,5.234,0,5.637-2.417,8.453-2.013,8.856h0v1.206l-5.637,8.855v8.451l13.28-8.451s7.65-.808,6.439-7.65C978.258,406.645,970.609,385.31,970.609,385.31Z" transform="translate(-953.683 -316.882)"/></g></g><g transform="translate(361.089 168.869)"><path class="y" d="M958.65,426.094a9.133,9.133,0,0,0,1.208-5.127,2.069,2.069,0,0,0-2.509.434l-3.539,6.159a2,2,0,0,0,.77,2.279A9.154,9.154,0,0,0,958.65,426.094Z" transform="translate(-945.537 -416.902)"/><circle class="ac" cx="4.435" cy="4.435" r="4.435" transform="translate(0.469 0.146)"/><path class="aa" d="M953.2,424.108l1.417-2.462h0l1.966,1.13a1.421,1.421,0,0,1,.522,1.94h0a1.42,1.42,0,0,1-1.938.522h0l-1.966-1.132Z" transform="translate(-945.803 -416.444)"/><path class="ai" d="M953.237,423.8l1.149-1.992a.27.27,0,0,1,.368-.1h0l1.734,1a1.42,1.42,0,0,1,.522,1.938v0h0a1.42,1.42,0,0,1-1.938.522v0h0l-1.733-.995a.271.271,0,0,1-.1-.368h0Z" transform="translate(-945.801 -416.428)"/><path class="aa" d="M953.914,424.515a4.064,4.064,0,0,0,1.424-2.462l-.306-.176-1.418,2.462Z" transform="translate(-945.587 -416.324)"/><circle class="ai" cx="4.072" cy="4.072" r="4.072" transform="translate(1.6 0.949)"/><path class="aa" d="M949,423.665s3.873.246,4.535-4.957l-2.092.094-1.616,1.368Z" transform="translate(-947.991 -417.976)"/><path class="ac" d="M948.977,423.65s3.874.246,4.535-4.957l-2.092.094-1.616,1.366Z" transform="translate(-948.005 -417.984)"/><path class="ac" d="M949.094,423.788a2.455,2.455,0,0,1-.534-.978c-.286-1.091.224-2.308-.222-3.346a.524.524,0,0,1,.526.523v.056a2.032,2.032,0,0,0,.364-1.817,1.2,1.2,0,0,1,1,.809,1.221,1.221,0,0,1,1.459-.569,1.154,1.154,0,0,1,.569.94,2.957,2.957,0,0,1-.183,1.12C951.747,421.589,950.658,425.5,949.094,423.788Z" transform="translate(-948.338 -418.227)"/><ellipse class="ai" cx="0.381" cy="0.71" rx="0.381" ry="0.71" transform="translate(2.817 8.523) rotate(-60.078)"/><ellipse class="ai" cx="0.381" cy="0.71" rx="0.381" ry="0.71" transform="translate(6.88 1.467) rotate(-60.078)"/></g></g><g transform="translate(345.43)"><g transform="translate(75.607 71.582)"><path class="ap" d="M990.6,296.742s-3.442,3.192-2.771,5.459,3.779,3.778,4.2,6.55,2.1,4.281,3.61,4.281h7.205s1.112-1.949-1.575-2.538-3.7-3.843-3.531-6.866a54.158,54.158,0,0,0-.253-7.053l-5.71-1.343Z" transform="translate(-987.741 -196.064)"/><path class="ap" d="M1017.461,302.9s-.84,6.719.671,7.475,19.565.5,19.565.5,0-2.268-3.107-2.772-8.565-2.351-9.489-6.465S1017.461,302.9,1017.461,302.9Z" transform="translate(-972.366 -193.528)"/><path class="aq" d="M1037.883,235.125s-1.019,12.728-2.218,28.029c-1.631,20.784-3.591,46.315-3.784,51.151-.335,8.4-1.681,21.832-1.681,21.832s-3.189,3.192-9.571,1.847a219.748,219.748,0,0,1-7.313-39.468q-.036-.5-.076-1c-1.511-20.656-3.861-64.152-3.861-64.152Z" transform="translate(-976.459 -228.323)"/><path class="ar" d="M1037.883,235.125s-1.019,12.728-2.218,28.029l-22.35,35.362q-.036-.5-.076-1c-1.511-20.656-3.861-64.152-3.861-64.152Z" transform="translate(-976.459 -228.323)"/><path class="aq" d="M1043.527,238.363s-18.389,46.1-30.48,67.762-15.87,27.709-15.87,27.709-6.928-2.77-7.558-4.66c0,0,4.625-41.822,12.722-52.019,4.575-5.76,9.95-23.049,10.2-29.094s1.637-18.012,1.637-18.012Z" transform="translate(-986.762 -230.05)"/></g><g transform="translate(144.11 24.989)"><path class="as" d="M1041.808,245.594s4.158,5.876,4.532,7,.353,5.6.064,5.78-.615.1-.931-.54-.932-2.93-1.139-2.682,1.144,7.009-.087,7.6-4.984-1.874-6.335-4.706-.335-9.912-.493-10.419C1036.073,243.333,1041.808,245.594,1041.808,245.594Z" transform="translate(-1030.455 -175.662)"/><path class="at" d="M1042.754,272.416c2.335-.494,2.57-.819,2.57-.819s-.389-22.982-.332-25.138,9.188-31.273,9.188-31.273l-15.631-15.762s-5.742,41.236-5.781,46.706c-.065,9.037,6.63,26.112,6.63,26.112A6.657,6.657,0,0,0,1042.754,272.416Z" transform="translate(-1032.767 -199.425)"/></g><path class="as" d="M1040.064,199.072s4.163,14.6,10.88,18.015a20.047,20.047,0,0,0-.263-7.752c.914-.665,1.727-1.283,2.434-1.839a43.951,43.951,0,0,0,3.549-3.06l-.832-7.09-.566-4.811a21.785,21.785,0,0,1-3.464,3.069A17.954,17.954,0,0,1,1040.064,199.072Z" transform="translate(-884.852 -178.028)"/><path class="au" d="M1048.046,194.553s-2.437,6.215,1.313,11.891a43.959,43.959,0,0,0,3.549-3.06l-.832-7.09A14.229,14.229,0,0,0,1048.046,194.553Z" transform="translate(-881.096 -176.976)"/><path class="as" d="M1054.345,208.624s-9.856-6.9-5.463-12.973,6.079-11.052,12.558-6.9,6.011,7.342,5.038,9.725S1057.022,210.262,1054.345,208.624Z" transform="translate(-880.842 -180.799)"/><path class="av" d="M1005,253.71c2.851,7.386,33.644,23.837,34.317,19.371a49.115,49.115,0,0,1,2.107-8.622q.468-1.376,1.076-2.894a70.783,70.783,0,0,1,12.529-19.92q.73-.84,1.506-1.689a68.053,68.053,0,0,0,7.049-9.121c3.881-6.023,6.337-12.092,6.188-16.486a.192.192,0,0,0,0-.061c-6.092-4.849-5.749-17.811-5.749-17.811s-24.451-1.508-45.189,26.517c0,0-2.1,3.12-4.671,7.423-3.125,5.218-6.954,12.167-8.6,17.391C1004.773,250.287,1004.484,252.379,1005,253.71Z" transform="translate(-903.27 -175.98)"/><path class="aw" d="M1050.858,184.947c-.04-.17-.222-.385-.723-.682a2.327,2.327,0,0,1,1.106.227,2.966,2.966,0,0,1,2.938-1.432,1.769,1.769,0,0,0-1.34.742c2.206-.746,5.833-.234,13.954,4.867,10.7,6.722,3.234,12.065,1.337,12.177s-4.3-4.161-7.108-5.349-5.383,2.5-6.58,2.565-.338-.707-1.278-1.92-2.144.808-2.492,2.348-2.979,2.439-2.979,2.439l-.738-2.775c-.738-2.774,1.792-11.573,3.458-12.862C1050.559,185.179,1050.707,185.063,1050.858,184.947Z" transform="translate(-881.327 -183)"/><path class="at" d="M1005.278,241.946c30.346-1.634,43.061-34.239,43.061-34.239s-19.094,8.375-34.463,16.848C1010.751,229.774,1006.921,236.722,1005.278,241.946Z" transform="translate(-902.99 -170.117)"/><g transform="translate(0 60.977)"><g transform="translate(7.217 119.674)"><path class="ax" d="M950.884,305.786a4.048,4.048,0,1,0-4.047,4.048A4.047,4.047,0,0,0,950.884,305.786Z" transform="translate(-942.789 -301.739)"/><path class="at" d="M948.77,305.246a2.472,2.472,0,1,0-2.472,2.472A2.473,2.473,0,0,0,948.77,305.246Z" transform="translate(-942.249 -301.199)"/></g><g transform="translate(43.714)"><path class="ay" d="M966.786,342.709c.753,0,15.874-.149,26.282-11.365,7.145-7.7,10.233-18.605,9.179-32.42-2.153-28.208,2.454-51.034,12.643-62.621a23.284,23.284,0,0,1,16.711-8.377c11.126-.584,21.557,12.183,21.66,12.313l3.758-3.032c-.488-.606-12.121-14.809-25.671-14.1a27.95,27.95,0,0,0-20.084,10.009c-5.632,6.407-9.687,15.582-12.051,27.273-2.288,11.312-2.888,24.4-1.78,38.906.948,12.418-1.712,22.1-7.9,28.768-9.02,9.719-22.579,9.821-22.745,9.821h0l-.008,4.827Z" transform="translate(-966.778 -223.079)"/></g><path class="az" d="M939.81,311.74a5.827,5.827,0,0,0,4.135,1.695h42.948a3.53,3.53,0,0,0,3.4-4.49c-1.754-6.2-5.526-17-11.245-20.515a11.47,11.47,0,0,0-3.472-1.339c-10.131-2.3-29.759,3.507-36.619,17.256,0,0-.166.3-.4.817A5.851,5.851,0,0,0,939.81,311.74Z" transform="translate(-938.045 -189.958)"/><g transform="translate(127.876 12.543)"><path class="aw" d="M1022.1,236.42l58.1,76.876,22.054,29.183,3.731-2.722-21.159-29.836-55.739-78.6Z" transform="translate(-1022.097 -231.324)"/><path class="ax" d="M1060.285,286.36l22.054,29.183,3.731-2.722-21.159-29.836Z" transform="translate(-1002.185 -204.387)"/></g><path class="at" d="M1.464,0H24.6a1.465,1.465,0,0,1,1.465,1.465v4A1.464,1.464,0,0,1,24.6,6.927H1.464A1.464,1.464,0,0,1,0,5.463v-4A1.464,1.464,0,0,1,1.464,0Z" transform="translate(200.561 120.599)"/><path class="ax" d="M1.464,0H19.3a1.465,1.465,0,0,1,1.465,1.465v4A1.464,1.464,0,0,1,19.3,6.927H1.464A1.464,1.464,0,0,1,0,5.463v-4A1.464,1.464,0,0,1,1.464,0Z" transform="translate(205.863 120.599)"/><path class="r" d="M939.205,311.572a5.827,5.827,0,0,0,4.135,1.695h42.948a3.53,3.53,0,0,0,3.4-4.49c-1.754-6.2-5.526-17-11.245-20.515a11.47,11.47,0,0,0-3.472-1.339C971.056,294.332,960.369,310.147,939.205,311.572Z" transform="translate(-937.441 -189.79)"/><g transform="translate(26.192 108.422)"><path class="ba" d="M974.607,304.018a9.673,9.673,0,1,0-9.673,9.673A9.673,9.673,0,0,0,974.607,304.018Z" transform="translate(-955.261 -294.343)"/><path class="bb" d="M969.553,302.727a5.908,5.908,0,1,0-5.909,5.908A5.909,5.909,0,0,0,969.553,302.727Z" transform="translate(-953.97 -293.052)"/></g></g><path class="as" d="M1005.587,223.235a59.929,59.929,0,0,1,1.255,6.3c-.05.911-.773,3.689-1.03,3.735s-1.039.17-1.083-.379.25-1.1.032-.984-.038,2.189-1.086,2.261-4.252-.718-4.415-3.13,2.579-7.19,2.609-7.6C1002.126,219.985,1005.587,223.235,1005.587,223.235Z" transform="translate(-906.131 -162.744)"/><path class="av" d="M1002.954,236.593a11.7,11.7,0,0,0,4.226,0s14.079-14.256,16.049-15.432,28.962-2.2,28.962-2.2,10.814.026,13.388-5.55c2.236-4.844.59-8.984-1.789-12.015a11.177,11.177,0,0,0-12.017-3.756c-9.87,2.976-29.5,9.048-33.167,11.333-8.153,5.088-18.592,25.181-18.592,25.181A4.316,4.316,0,0,0,1002.954,236.593Z" transform="translate(-905.734 -175.616)"/></g></g><g transform="translate(1118.019 644.624)"><path class="bc" d="M1043.294,490.812v11.712a4.455,4.455,0,0,1-4.487,4.4H968.14a4.455,4.455,0,0,1-4.487-4.4V490.812a4.454,4.454,0,0,1,4.487-4.394h70.668A4.454,4.454,0,0,1,1043.294,490.812Z" transform="translate(-962.819 -486.418)"/><path class="bd" d="M1043.294,495.662V497.8a4.455,4.455,0,0,1-4.487,4.4H968.14a4.455,4.455,0,0,1-4.487-4.4v-2.308h78.356A4.839,4.839,0,0,1,1043.294,495.662Z" transform="translate(-962.819 -481.689)"/><g transform="translate(0 20.395)"><path class="be" d="M980.951,499.93l-3.186,11.82,0,0-13.262,49.2h-1.4l7.665-40.815c.008-.041.02-.081.027-.125l3.79-20.186Z" transform="translate(-963.105 -499.823)"/></g><path class="bf" d="M978.315,499.93l-3.186,11.82,0,0c-.184.088-5.982,3.026-6.965,8.257l3.79-20.186Z" transform="translate(-960.469 -479.428)"/><g transform="translate(62.629 20.395)"><path class="be" d="M1022.116,560.949h-1.4l-10.805-40.076v-.008l-2.457-9.113,0,0-3.186-11.82,6.364-.107,2.168,11.541,1.622,8.645c.008.044.02.084.027.125Z" transform="translate(-1004.27 -499.823)"/></g><path class="be" d="M1001.856,510.083c-.008,0-.015,0-.023-.015C1001.8,510.017,1001.81,510.029,1001.856,510.083Z" transform="translate(-942.921 -474.104)"/><path class="bf" d="M1012.8,511.364a16.954,16.954,0,0,0-2.886,9.5l-2.457-9.113,0,0-3.186-11.82,6.364-.107Z" transform="translate(-941.641 -479.428)"/></g><path class="bg" d="M871,530" transform="translate(106.889 180.93)"/><path d="M1141,569" transform="translate(247.67 201.265)"/><path class="bh" d="M666,540h838.3" transform="translate(0 186.144)"/></g></g></svg>